<?xml version="1.0" encoding="UTF-8"?>
<!DOCTYPE svg PUBLIC "-//W3C//DTD SVG 1.1//EN" "http://www.w3.org/Graphics/SVG/1.1/DTD/svg11.dtd">
<svg xmlns="http://www.w3.org/2000/svg" version="1.1" width="703px" height="606px" style="shape-rendering:geometricPrecision; text-rendering:geometricPrecision; image-rendering:optimizeQuality; fill-rule:evenodd; clip-rule:evenodd" xmlns:xlink="http://www.w3.org/1999/xlink">
<g><path style="opacity:1" fill="#010101" d="M -0.5,-0.5 C 233.833,-0.5 468.167,-0.5 702.5,-0.5C 702.5,201.5 702.5,403.5 702.5,605.5C 468.167,605.5 233.833,605.5 -0.5,605.5C -0.5,403.5 -0.5,201.5 -0.5,-0.5 Z"/></g>
<g><path style="opacity:1" fill="#efefef" d="M 357.5,49.5 C 366.33,50.4416 375.33,51.1083 384.5,51.5C 387.845,53.217 391.511,53.8836 395.5,53.5C 398.273,54.6572 401.273,55.3239 404.5,55.5C 407.167,55.8333 409.833,56.1667 412.5,56.5C 415.66,59 419.327,60.3333 423.5,60.5C 423.833,60.5 424.167,60.5 424.5,60.5C 429.085,63.1395 434.085,64.8062 439.5,65.5C 441.033,67.2451 443.033,68.2451 445.5,68.5C 453.172,71.6777 460.838,75.011 468.5,78.5C 483.072,86.7641 497.072,95.7641 510.5,105.5C 511.911,107.914 513.911,109.581 516.5,110.5C 523.5,117.167 530.5,123.833 537.5,130.5C 539.094,133.764 541.427,136.431 544.5,138.5C 559.795,154.408 572.128,172.408 581.5,192.5C 581.502,196.165 582.835,199.165 585.5,201.5C 585.259,203.898 585.926,205.898 587.5,207.5C 588.167,207.5 588.5,207.833 588.5,208.5C 588.511,210.547 588.844,212.547 589.5,214.5C 589.253,215.713 588.586,216.38 587.5,216.5C 575.604,187.7 558.937,162.034 537.5,139.5C 533.167,133.167 527.833,127.833 521.5,123.5C 518.911,122.581 516.911,120.914 515.5,118.5C 514.415,116.413 512.749,115.08 510.5,114.5C 498.567,105.857 486.234,97.6906 473.5,90C 469.73,89.2783 466.397,87.7783 463.5,85.5C 459.839,82.1715 455.506,80.1715 450.5,79.5C 449.609,78.8902 448.609,78.5569 447.5,78.5C 443.099,74.399 437.766,72.399 431.5,72.5C 425.435,68.8177 418.768,66.8177 411.5,66.5C 410.833,66.5 410.167,66.5 409.5,66.5C 407.485,65.0762 405.152,64.4095 402.5,64.5C 400.097,64.552 397.764,64.2186 395.5,63.5C 389.82,61.3996 383.82,60.3996 377.5,60.5C 373.548,59.7279 369.548,59.3946 365.5,59.5C 358.675,58.8337 351.675,58.5003 344.5,58.5C 334.944,58.2755 325.611,58.9422 316.5,60.5C 309.578,60.6557 302.911,61.6557 296.5,63.5C 292.761,65.1016 288.761,66.1016 284.5,66.5C 278.834,67.3904 273.5,69.057 268.5,71.5C 260.51,73.936 252.843,76.936 245.5,80.5C 243.033,80.7549 241.033,81.7549 239.5,83.5C 238.508,83.3284 237.842,83.6618 237.5,84.5C 235.033,84.7549 233.033,85.7549 231.5,87.5C 229.326,87.7497 227.659,88.7497 226.5,90.5C 224.847,90.6596 223.514,91.3263 222.5,92.5C 220.973,92.427 219.973,93.0937 219.5,94.5C 217.326,94.7497 215.659,95.7497 214.5,97.5C 203.927,103.622 194.26,110.955 185.5,119.5C 179.892,123.439 174.892,128.106 170.5,133.5C 169.5,133.833 168.833,134.5 168.5,135.5C 165.097,137.9 162.43,140.9 160.5,144.5C 159.5,144.833 158.833,145.5 158.5,146.5C 156.413,147.585 155.08,149.251 154.5,151.5C 152.413,152.585 151.08,154.251 150.5,156.5C 137.041,172.407 126.374,190.074 118.5,209.5C 116.926,211.102 116.259,213.102 116.5,215.5C 115.094,215.973 114.427,216.973 114.5,218.5C 114.5,219.167 114.5,219.833 114.5,220.5C 113.883,220.611 113.383,220.944 113,221.5C 112.505,223.473 112.338,225.473 112.5,227.5C 115.167,227.5 117.833,227.5 120.5,227.5C 147.502,227.667 174.502,227.5 201.5,227C 205.562,219.445 210.562,212.611 216.5,206.5C 218.587,205.415 219.92,203.749 220.5,201.5C 236.369,182.58 255.702,168.58 278.5,159.5C 282.127,158.679 285.46,157.346 288.5,155.5C 291.084,153.528 294.084,152.528 297.5,152.5C 307.27,150.873 316.936,149.04 326.5,147C 335.827,146.5 345.161,146.334 354.5,146.5C 368.134,147.244 381.468,149.577 394.5,153.5C 398.064,155.919 402.064,157.586 406.5,158.5C 437.22,170.029 462.054,189.362 481,216.5C 481.494,218.134 481.66,219.801 481.5,221.5C 480.448,221.649 479.448,221.483 478.5,221C 470.699,211.364 462.365,202.198 453.5,193.5C 451.761,190.757 449.427,188.757 446.5,187.5C 440.891,183.687 435.224,179.853 429.5,176C 423.114,172.807 416.78,169.64 410.5,166.5C 410.027,165.094 409.027,164.427 407.5,164.5C 403.336,161.666 398.669,159.999 393.5,159.5C 387.614,158.61 381.947,157.277 376.5,155.5C 373.797,154.037 370.797,153.204 367.5,153C 356.659,152.175 345.992,152.341 335.5,153.5C 330.566,153.229 325.9,153.896 321.5,155.5C 321.167,155.5 320.833,155.5 320.5,155.5C 317.813,155.336 315.146,155.503 312.5,156C 311.584,156.278 310.918,156.778 310.5,157.5C 307.848,157.41 305.515,158.076 303.5,159.5C 299.838,159.723 296.505,160.723 293.5,162.5C 290.519,162.182 288.185,163.182 286.5,165.5C 280.825,166.506 275.825,168.839 271.5,172.5C 261.265,177.114 252.265,183.447 244.5,191.5C 237.833,196.167 232.167,201.833 227.5,208.5C 226.5,208.833 225.833,209.5 225.5,210.5C 223.413,211.585 222.08,213.251 221.5,215.5C 219.1,217.296 217.433,219.63 216.5,222.5C 214.896,223.287 214.229,224.62 214.5,226.5C 220.026,226.821 225.36,226.488 230.5,225.5C 274.493,223.93 318.493,222.597 362.5,221.5C 379.358,221.154 396.025,220.154 412.5,218.5C 421.167,218.5 429.833,218.5 438.5,218.5C 438.768,220.099 438.434,221.432 437.5,222.5C 417.656,223.82 397.99,225.487 378.5,227.5C 367.851,228.432 357.184,229.098 346.5,229.5C 339.317,229.768 332.317,230.435 325.5,231.5C 318.132,231.317 310.799,231.65 303.5,232.5C 297.158,232.334 290.825,232.5 284.5,233C 282.292,233.191 280.292,233.691 278.5,234.5C 268.157,234.588 257.824,234.922 247.5,235.5C 236.616,235.759 225.949,236.759 215.5,238.5C 200.636,238.802 185.969,239.802 171.5,241.5C 152.747,243.087 134.081,242.754 115.5,240.5C 111.79,238.864 107.79,238.198 103.5,238.5C 100.855,236.69 97.855,235.69 94.5,235.5C 82.9505,230.614 76.2839,221.947 74.5,209.5C 74.4336,205.421 75.4336,201.755 77.5,198.5C 81.7481,193.913 86.0814,189.246 90.5,184.5C 94.0751,181.492 95.7418,182.492 95.5,187.5C 92.8333,188.167 91.1667,189.833 90.5,192.5C 88.1782,193.802 86.8449,195.802 86.5,198.5C 84.9532,200.807 84.2865,203.473 84.5,206.5C 84.5046,208.696 84.838,210.696 85.5,212.5C 87.913,217.248 91.5796,220.581 96.5,222.5C 97.1451,223.812 98.1451,224.812 99.5,225.5C 101.115,221.991 102.115,218.325 102.5,214.5C 104.903,207.53 107.903,200.863 111.5,194.5C 114.751,191.676 116.751,188.009 117.5,183.5C 122.593,172.97 128.926,163.303 136.5,154.5C 138.587,153.415 139.92,151.749 140.5,149.5C 142.882,144.752 146.216,140.752 150.5,137.5C 157.167,131.5 163.5,125.167 169.5,118.5C 183.719,104.391 199.719,92.724 217.5,83.5C 219.848,83.4077 221.514,82.4077 222.5,80.5C 224.849,78.659 227.515,77.3257 230.5,76.5C 235.001,75.9127 239.001,74.2461 242.5,71.5C 246.066,71.2078 249.066,69.8744 251.5,67.5C 254.397,66.871 257.064,65.871 259.5,64.5C 268.169,62.6094 276.502,59.9427 284.5,56.5C 290.61,54.6768 296.943,53.3435 303.5,52.5C 310.422,52.3443 317.089,51.3443 323.5,49.5C 334.961,48.2003 346.295,48.2003 357.5,49.5 Z"/></g>
<g><path style="opacity:1" fill="#787878" d="M 323.5,49.5 C 317.089,51.3443 310.422,52.3443 303.5,52.5C 309.911,50.6557 316.578,49.6557 323.5,49.5 Z"/></g>
<g><path style="opacity:1" fill="#888888" d="M 357.5,49.5 C 366.733,49.0746 375.733,49.7413 384.5,51.5C 375.33,51.1083 366.33,50.4416 357.5,49.5 Z"/></g>
<g><path style="opacity:1" fill="#9c9c9c" d="M 384.5,51.5 C 388.36,51.8084 392.026,52.4751 395.5,53.5C 391.511,53.8836 387.845,53.217 384.5,51.5 Z"/></g>
<g><path style="opacity:1" fill="#646464" d="M 395.5,53.5 C 398.187,53.3359 400.854,53.5026 403.5,54C 404.056,54.3826 404.389,54.8826 404.5,55.5C 401.273,55.3239 398.273,54.6572 395.5,53.5 Z"/></g>
<g><path style="opacity:1" fill="#6c6c6c" d="M 365.5,59.5 C 349.15,59.2972 332.816,59.6305 316.5,60.5C 325.611,58.9422 334.944,58.2755 344.5,58.5C 351.675,58.5003 358.675,58.8337 365.5,59.5 Z"/></g>
<g><path style="opacity:1" fill="#6f6f6f" d="M 412.5,56.5 C 416.533,57.0249 420.2,58.3582 423.5,60.5C 419.327,60.3333 415.66,59 412.5,56.5 Z"/></g>
<g><path style="opacity:1" fill="#757575" d="M 377.5,60.5 C 383.82,60.3996 389.82,61.3996 395.5,63.5C 389.31,62.8569 383.31,61.8569 377.5,60.5 Z"/></g>
<g><path style="opacity:1" fill="#717171" d="M 424.5,60.5 C 429.767,61.5889 434.767,63.2556 439.5,65.5C 434.085,64.8062 429.085,63.1395 424.5,60.5 Z"/></g>
<g><path style="opacity:1" fill="#b3b3b3" d="M 284.5,56.5 C 276.502,59.9427 268.169,62.6094 259.5,64.5C 267.498,61.0573 275.831,58.3906 284.5,56.5 Z"/></g>
<g><path style="opacity:1" fill="#757575" d="M 316.5,60.5 C 310.089,62.3443 303.422,63.3443 296.5,63.5C 302.911,61.6557 309.578,60.6557 316.5,60.5 Z"/></g>
<g><path style="opacity:1" fill="#868686" d="M 259.5,64.5 C 257.064,65.871 254.397,66.871 251.5,67.5C 253.617,65.3455 256.284,64.3455 259.5,64.5 Z"/></g>
<g><path style="opacity:1" fill="#676767" d="M 402.5,64.5 C 405.152,64.4095 407.485,65.0762 409.5,66.5C 406.848,66.5905 404.515,65.9238 402.5,64.5 Z"/></g>
<g><path style="opacity:1" fill="#858585" d="M 439.5,65.5 C 441.967,65.7549 443.967,66.7549 445.5,68.5C 443.033,68.2451 441.033,67.2451 439.5,65.5 Z"/></g>
<g><path style="opacity:1" fill="#8f8f8f" d="M 411.5,66.5 C 418.768,66.8177 425.435,68.8177 431.5,72.5C 424.553,71.0028 417.886,69.0028 411.5,66.5 Z"/></g>
<g><path style="opacity:1" fill="#b1b1b1" d="M 251.5,67.5 C 249.066,69.8744 246.066,71.2078 242.5,71.5C 244.764,68.8743 247.764,67.541 251.5,67.5 Z"/></g>
<g><path style="opacity:1" fill="#646464" d="M 284.5,66.5 C 279.5,68.943 274.166,70.6096 268.5,71.5C 273.5,69.057 278.834,67.3904 284.5,66.5 Z"/></g>
<g><path style="opacity:1" fill="#b2b2b2" d="M 242.5,71.5 C 239.001,74.2461 235.001,75.9127 230.5,76.5C 233.999,73.7539 237.999,72.0873 242.5,71.5 Z"/></g>
<g><path style="opacity:1" fill="#929292" d="M 431.5,72.5 C 437.766,72.399 443.099,74.399 447.5,78.5C 441.915,76.8494 436.582,74.8494 431.5,72.5 Z"/></g>
<g><path style="opacity:1" fill="#9a9a9a" d="M 450.5,79.5 C 455.506,80.1715 459.839,82.1715 463.5,85.5C 458.738,84.2836 454.405,82.2836 450.5,79.5 Z"/></g>
<g><path style="opacity:1" fill="#532f19" d="M 324.5,81.5 C 320.802,81.5524 317.135,81.8857 313.5,82.5C 317.044,80.4309 320.71,80.0976 324.5,81.5 Z"/></g>
<g><path style="opacity:1" fill="#999999" d="M 222.5,80.5 C 221.514,82.4077 219.848,83.4077 217.5,83.5C 218.659,81.7497 220.326,80.7497 222.5,80.5 Z"/></g>
<g><path style="opacity:1" fill="#7a7a7a" d="M 245.5,80.5 C 243.967,82.2451 241.967,83.2451 239.5,83.5C 241.033,81.7549 243.033,80.7549 245.5,80.5 Z"/></g>
<g><path style="opacity:1" fill="#ef8848" d="M 324.5,81.5 C 329.755,91.0097 334.755,100.676 339.5,110.5C 339.5,111.833 339.5,113.167 339.5,114.5C 336.833,114.5 334.167,114.5 331.5,114.5C 331.373,111.728 329.873,110.395 327,110.5C 323.196,111.205 319.363,111.538 315.5,111.5C 315.007,113.806 314.674,116.139 314.5,118.5C 313.5,118.5 312.5,118.5 311.5,118.5C 309.712,118.785 308.045,118.452 306.5,117.5C 308.065,113.313 308.732,108.98 308.5,104.5C 309.301,102.958 309.634,101.292 309.5,99.5C 310.117,99.3893 310.617,99.056 311,98.5C 311.497,95.854 311.664,93.1873 311.5,90.5C 311.5,90.1667 311.5,89.8333 311.5,89.5C 312.924,87.4855 313.59,85.1522 313.5,82.5C 317.135,81.8857 320.802,81.5524 324.5,81.5 Z"/></g>
<g><path style="opacity:1" fill="#734122" d="M 379.5,81.5 C 374.784,81.1209 370.45,82.1209 366.5,84.5C 367.453,82.39 369.119,81.2233 371.5,81C 374.367,80.1993 377.034,80.3659 379.5,81.5 Z"/></g>
<g><path style="opacity:1" fill="#f08848" d="M 379.5,81.5 C 383.571,82.8615 386.905,85.1948 389.5,88.5C 389.5,90.1667 389.5,91.8333 389.5,93.5C 388.167,93.5 386.833,93.5 385.5,93.5C 383.833,93.5 382.167,93.5 380.5,93.5C 380.2,89.0236 378.033,87.6903 374,89.5C 373.333,90.8333 373.333,92.1667 374,93.5C 377.912,96.5409 382.079,99.2076 386.5,101.5C 390.185,109.404 387.851,114.737 379.5,117.5C 375.802,117.448 372.135,117.114 368.5,116.5C 365.16,115.16 362.827,112.827 361.5,109.5C 361.5,108.167 361.5,106.833 361.5,105.5C 363.833,105.5 366.167,105.5 368.5,105.5C 369.933,106.833 371.267,108.333 372.5,110C 377.1,111.583 378.934,110.083 378,105.5C 372.412,103.474 367.912,100.141 364.5,95.5C 364.113,91.5559 364.78,87.8892 366.5,84.5C 370.45,82.1209 374.784,81.1209 379.5,81.5 Z"/></g>
<g><path style="opacity:1" fill="#757575" d="M 237.5,84.5 C 235.967,86.2451 233.967,87.2451 231.5,87.5C 233.033,85.7549 235.033,84.7549 237.5,84.5 Z"/></g>
<g><path style="opacity:1" fill="#5f361c" d="M 313.5,82.5 C 313.59,85.1522 312.924,87.4855 311.5,89.5C 311.41,86.8478 312.076,84.5145 313.5,82.5 Z"/></g>
<g><path style="opacity:1" fill="#5c5c5c" d="M 231.5,87.5 C 230.514,89.4077 228.848,90.4077 226.5,90.5C 227.659,88.7497 229.326,87.7497 231.5,87.5 Z"/></g>
<g><path style="opacity:1" fill="#884d29" d="M 366.5,84.5 C 364.78,87.8892 364.113,91.5559 364.5,95.5C 363.362,92.6965 363.195,89.6965 364,86.5C 364.708,85.6195 365.542,84.9528 366.5,84.5 Z"/></g>
<g><path style="opacity:1" fill="#727272" d="M 222.5,92.5 C 222.027,93.9063 221.027,94.573 219.5,94.5C 219.973,93.0937 220.973,92.427 222.5,92.5 Z"/></g>
<g><path style="opacity:1" fill="#764223" d="M 389.5,88.5 C 390.461,90.2646 390.795,92.2646 390.5,94.5C 388.585,94.7845 386.919,94.4511 385.5,93.5C 386.833,93.5 388.167,93.5 389.5,93.5C 389.5,91.8333 389.5,90.1667 389.5,88.5 Z"/></g>
<g><path style="opacity:1" fill="#606060" d="M 219.5,94.5 C 218.514,96.4077 216.848,97.4077 214.5,97.5C 215.659,95.7497 217.326,94.7497 219.5,94.5 Z"/></g>
<g><path style="opacity:1" fill="#2c1b10" d="M 319.5,93.5 C 320.496,93.4142 321.329,93.7476 322,94.5C 323.303,96.9398 324.47,99.4398 325.5,102C 325.095,102.945 324.428,103.612 323.5,104C 321.527,104.495 319.527,104.662 317.5,104.5C 318.167,100.833 318.833,97.1667 319.5,93.5 Z"/></g>
<g><path style="opacity:1" fill="#8f512b" d="M 311.5,90.5 C 311.664,93.1873 311.497,95.854 311,98.5C 310.617,99.056 310.117,99.3893 309.5,99.5C 309.676,96.2727 310.343,93.2727 311.5,90.5 Z"/></g>
<g><path style="opacity:1" fill="#4e2c17" d="M 368.5,105.5 C 366.167,105.5 363.833,105.5 361.5,105.5C 361.5,106.833 361.5,108.167 361.5,109.5C 360.549,108.081 360.216,106.415 360.5,104.5C 363.385,104.194 366.052,104.527 368.5,105.5 Z"/></g>
<g><path style="opacity:1" fill="#4c4c4c" d="M 510.5,105.5 C 513.089,106.419 515.089,108.086 516.5,110.5C 513.911,109.581 511.911,107.914 510.5,105.5 Z"/></g>
<g><path style="opacity:1" fill="#894d29" d="M 308.5,104.5 C 308.732,108.98 308.065,113.313 306.5,117.5C 308.045,118.452 309.712,118.785 311.5,118.5C 309.735,119.461 307.735,119.795 305.5,119.5C 305.625,114.206 306.625,109.206 308.5,104.5 Z"/></g>
<g><path style="opacity:1" fill="#894d29" d="M 339.5,110.5 C 340.931,111.78 341.598,113.447 341.5,115.5C 337.958,115.813 334.625,115.479 331.5,114.5C 334.167,114.5 336.833,114.5 339.5,114.5C 339.5,113.167 339.5,111.833 339.5,110.5 Z"/></g>
<g><path style="opacity:1" fill="#959595" d="M 510.5,114.5 C 512.749,115.08 514.415,116.413 515.5,118.5C 513.251,117.92 511.585,116.587 510.5,114.5 Z"/></g>
<g><path style="opacity:1" fill="#7b4524" d="M 368.5,116.5 C 372.135,117.114 375.802,117.448 379.5,117.5C 375.71,118.902 372.044,118.569 368.5,116.5 Z"/></g>
<g><path style="opacity:1" fill="#9f9f9f" d="M 521.5,123.5 C 527.833,127.833 533.167,133.167 537.5,139.5C 531.833,134.5 526.5,129.167 521.5,123.5 Z"/></g>
<g><path style="opacity:1" fill="#a1a1a1" d="M 169.5,118.5 C 163.5,125.167 157.167,131.5 150.5,137.5C 155.833,130.167 162.167,123.833 169.5,118.5 Z"/></g>
<g><path style="opacity:1" fill="#404040" d="M 185.5,119.5 C 181.108,124.894 176.108,129.561 170.5,133.5C 174.892,128.106 179.892,123.439 185.5,119.5 Z"/></g>
<g><path style="opacity:1" fill="#909090" d="M 537.5,130.5 C 540.573,132.569 542.906,135.236 544.5,138.5C 541.427,136.431 539.094,133.764 537.5,130.5 Z"/></g>
<g><path style="opacity:1" fill="#555555" d="M 168.5,135.5 C 166.57,139.1 163.903,142.1 160.5,144.5C 162.43,140.9 165.097,137.9 168.5,135.5 Z"/></g>
<g><path style="opacity:1" fill="#7f7f7f" d="M 354.5,146.5 C 345.161,146.334 335.827,146.5 326.5,147C 316.936,149.04 307.27,150.873 297.5,152.5C 316.016,145.828 335.016,143.828 354.5,146.5 Z"/></g>
<g><path style="opacity:1" fill="#555555" d="M 158.5,146.5 C 157.92,148.749 156.587,150.415 154.5,151.5C 155.08,149.251 156.413,147.585 158.5,146.5 Z"/></g>
<g><path style="opacity:1" fill="#9c9c9c" d="M 140.5,149.5 C 139.92,151.749 138.587,153.415 136.5,154.5C 137.08,152.251 138.413,150.585 140.5,149.5 Z"/></g>
<g><path style="opacity:1" fill="#b6b6b6" d="M 335.5,153.5 C 345.992,152.341 356.659,152.175 367.5,153C 370.797,153.204 373.797,154.037 376.5,155.5C 375.167,155.5 373.833,155.5 372.5,155.5C 370.369,154.686 368.036,154.186 365.5,154C 355.506,153.5 345.506,153.334 335.5,153.5 Z"/></g>
<g><path style="opacity:1" fill="#3c3c3c" d="M 335.5,153.5 C 345.506,153.334 355.506,153.5 365.5,154C 368.036,154.186 370.369,154.686 372.5,155.5C 355.498,154.207 338.498,154.207 321.5,155.5C 325.9,153.896 330.566,153.229 335.5,153.5 Z"/></g>
<g><path style="opacity:1" fill="#545454" d="M 154.5,151.5 C 153.92,153.749 152.587,155.415 150.5,156.5C 151.08,154.251 152.413,152.585 154.5,151.5 Z"/></g>
<g><path style="opacity:1" fill="#9a9a9a" d="M 394.5,153.5 C 398.936,154.414 402.936,156.081 406.5,158.5C 402.064,157.586 398.064,155.919 394.5,153.5 Z"/></g>
<g><path style="opacity:1" fill="#8e8e8e" d="M 288.5,155.5 C 285.46,157.346 282.127,158.679 278.5,159.5C 281.192,156.819 284.525,155.486 288.5,155.5 Z"/></g>
<g><path style="opacity:1" fill="#6a6a6a" d="M 320.5,155.5 C 317.373,156.581 314.04,157.247 310.5,157.5C 310.918,156.778 311.584,156.278 312.5,156C 315.146,155.503 317.813,155.336 320.5,155.5 Z"/></g>
<g><path style="opacity:1" fill="#4f4f4f" d="M 310.5,157.5 C 308.485,158.924 306.152,159.59 303.5,159.5C 305.515,158.076 307.848,157.41 310.5,157.5 Z"/></g>
<g><path style="opacity:1" fill="#9a9a9a" d="M 393.5,159.5 C 398.669,159.999 403.336,161.666 407.5,164.5C 402.578,163.364 397.911,161.697 393.5,159.5 Z"/></g>
<g><path style="opacity:1" fill="#4f4f4f" d="M 303.5,159.5 C 300.495,161.277 297.162,162.277 293.5,162.5C 296.505,160.723 299.838,159.723 303.5,159.5 Z"/></g>
<g><path style="opacity:1" fill="#6e6e6e" d="M 407.5,164.5 C 409.027,164.427 410.027,165.094 410.5,166.5C 408.973,166.573 407.973,165.906 407.5,164.5 Z"/></g>
<g><path style="opacity:1" fill="#444444" d="M 286.5,165.5 C 281.872,168.647 276.872,170.981 271.5,172.5C 275.825,168.839 280.825,166.506 286.5,165.5 Z"/></g>
<g><path style="opacity:1" fill="#a8a8a8" d="M 90.5,184.5 C 86.0814,189.246 81.7481,193.913 77.5,198.5C 80.4481,192.552 84.7815,187.885 90.5,184.5 Z"/></g>
<g><path style="opacity:1" fill="#979797" d="M 446.5,187.5 C 449.427,188.757 451.761,190.757 453.5,193.5C 450.573,192.243 448.239,190.243 446.5,187.5 Z"/></g>
<g><path style="opacity:1" fill="#5a5a5a" d="M 95.5,187.5 C 94.1667,189.5 92.5,191.167 90.5,192.5C 91.1667,189.833 92.8333,188.167 95.5,187.5 Z"/></g>
<g><path style="opacity:1" fill="#b4b4b4" d="M 117.5,183.5 C 116.751,188.009 114.751,191.676 111.5,194.5C 112.742,190.345 114.742,186.678 117.5,183.5 Z"/></g>
<g><path style="opacity:1" fill="#9a9a9a" d="M 581.5,192.5 C 583.592,195.088 584.925,198.088 585.5,201.5C 582.835,199.165 581.502,196.165 581.5,192.5 Z"/></g>
<g><path style="opacity:1" fill="#434343" d="M 244.5,191.5 C 239.167,197.5 233.5,203.167 227.5,208.5C 232.167,201.833 237.833,196.167 244.5,191.5 Z"/></g>
<g><path style="opacity:1" fill="#8e8e8e" d="M 220.5,201.5 C 219.92,203.749 218.587,205.415 216.5,206.5C 217.08,204.251 218.413,202.585 220.5,201.5 Z"/></g>
<g><path style="opacity:1" fill="#9d9d9d" d="M 585.5,201.5 C 587.074,203.102 587.741,205.102 587.5,207.5C 585.926,205.898 585.259,203.898 585.5,201.5 Z"/></g>
<g><path style="opacity:1" fill="#383838" d="M 86.5,198.5 C 85.7705,203.13 85.4372,207.797 85.5,212.5C 84.838,210.696 84.5046,208.696 84.5,206.5C 84.2865,203.473 84.9532,200.807 86.5,198.5 Z"/></g>
<g><path style="opacity:1" fill="#515151" d="M 118.5,209.5 C 118.741,211.898 118.074,213.898 116.5,215.5C 116.259,213.102 116.926,211.102 118.5,209.5 Z"/></g>
<g><path style="opacity:1" fill="#5c5c5c" d="M 225.5,210.5 C 224.92,212.749 223.587,214.415 221.5,215.5C 222.08,213.251 223.413,211.585 225.5,210.5 Z"/></g>
<g><path style="opacity:1" fill="#b3b3b3" d="M 588.5,208.5 C 590.658,212.507 591.991,216.84 592.5,221.5C 589.298,221.463 587.632,219.797 587.5,216.5C 588.586,216.38 589.253,215.713 589.5,214.5C 588.844,212.547 588.511,210.547 588.5,208.5 Z"/></g>
<g><path style="opacity:1" fill="#717171" d="M 116.5,215.5 C 116.573,217.027 115.906,218.027 114.5,218.5C 114.427,216.973 115.094,215.973 116.5,215.5 Z"/></g>
<g><path style="opacity:1" fill="#545454" d="M 412.5,218.5 C 396.025,220.154 379.358,221.154 362.5,221.5C 363.952,220.698 365.618,220.198 367.5,220C 382.496,219.3 397.496,218.8 412.5,218.5 Z"/></g>
<g><path style="opacity:1" fill="#b2b2b2" d="M 102.5,214.5 C 102.115,218.325 101.115,221.991 99.5,225.5C 98.1451,224.812 97.1451,223.812 96.5,222.5C 97.675,222.719 98.675,222.386 99.5,221.5C 100.33,218.984 101.33,216.65 102.5,214.5 Z"/></g>
<g><path style="opacity:1" fill="#7d7d7d" d="M 216.5,222.5 C 216.586,223.496 216.252,224.329 215.5,225C 220.489,225.499 225.489,225.666 230.5,225.5C 225.36,226.488 220.026,226.821 214.5,226.5C 214.229,224.62 214.896,223.287 216.5,222.5 Z"/></g>
<g><path style="opacity:1" fill="#3b3b3b" d="M 437.5,222.5 C 437.082,223.222 436.416,223.722 435.5,224C 416.525,225.652 397.525,226.819 378.5,227.5C 397.99,225.487 417.656,223.82 437.5,222.5 Z"/></g>
<g><path style="opacity:1" fill="#626262" d="M 114.5,220.5 C 113.566,222.239 113.566,223.905 114.5,225.5C 116.657,226.05 118.657,226.717 120.5,227.5C 117.833,227.5 115.167,227.5 112.5,227.5C 112.338,225.473 112.505,223.473 113,221.5C 113.383,220.944 113.883,220.611 114.5,220.5 Z"/></g>
<g><path style="opacity:1" fill="#464646" d="M 346.5,229.5 C 345.048,230.302 343.382,230.802 341.5,231C 336.177,231.499 330.844,231.666 325.5,231.5C 332.317,230.435 339.317,229.768 346.5,229.5 Z"/></g>
<g><path style="opacity:1" fill="#707070" d="M 303.5,232.5 C 295.34,233.473 287.007,234.14 278.5,234.5C 280.292,233.691 282.292,233.191 284.5,233C 290.825,232.5 297.158,232.334 303.5,232.5 Z"/></g>
<g><path style="opacity:1" fill="#8e8e8e" d="M 247.5,235.5 C 237.702,237.076 227.702,238.076 217.5,238.5C 216.833,238.5 216.167,238.5 215.5,238.5C 225.949,236.759 236.616,235.759 247.5,235.5 Z"/></g>
<g><path style="opacity:1" fill="#8f8f8f" d="M 94.5,235.5 C 97.855,235.69 100.855,236.69 103.5,238.5C 100.084,238.472 97.0836,237.472 94.5,235.5 Z"/></g>
<g><path style="opacity:1" fill="#989898" d="M 103.5,238.5 C 107.79,238.198 111.79,238.864 115.5,240.5C 111.21,240.802 107.21,240.136 103.5,238.5 Z"/></g>
<g><path style="opacity:1" fill="#3e3e3e" d="M 215.5,238.5 C 216.167,238.5 216.833,238.5 217.5,238.5C 202.363,240.198 187.029,241.198 171.5,241.5C 185.969,239.802 200.636,238.802 215.5,238.5 Z"/></g>
<g><path style="opacity:1" fill="#f2f2f2" d="M 225.5,261.5 C 236.041,260.539 240.541,265.205 239,275.5C 236.081,281.025 231.581,282.858 225.5,281C 224.057,279.933 222.724,278.766 221.5,277.5C 220.34,273.541 220.173,269.541 221,265.5C 222.397,263.93 223.897,262.596 225.5,261.5 Z"/></g>
<g><path style="opacity:1" fill="#f6f6f6" d="M 78.5,274.5 C 77.2101,275.058 76.3768,276.058 76,277.5C 75.5017,280.817 75.335,284.15 75.5,287.5C 75.0076,292.208 76.3409,292.708 79.5,289C 97.3675,284.703 104.701,291.537 101.5,309.5C 100.076,311.515 99.4095,313.848 99.5,316.5C 99.5,317.167 99.5,317.833 99.5,318.5C 98.0762,320.515 97.4095,322.848 97.5,325.5C 96.3592,328.64 96.1925,331.973 97,335.5C 99.9253,338.059 102.925,338.059 106,335.5C 105.442,325.022 107.275,315.022 111.5,305.5C 113.262,304.738 114.262,303.404 114.5,301.5C 122.632,287.779 134.298,283.612 149.5,289C 155.008,293.523 157.008,299.356 155.5,306.5C 159.197,305.992 162.864,305.326 166.5,304.5C 167.628,298.858 168.628,293.191 169.5,287.5C 175.5,287.5 181.5,287.5 187.5,287.5C 187.338,289.527 187.505,291.527 188,293.5C 194.541,286.554 201.541,285.887 209,291.5C 211.366,302.127 207.366,306.461 197,304.5C 195.316,296.285 191.483,295.285 185.5,301.5C 184.67,304.821 184.003,308.154 183.5,311.5C 182.655,312.671 181.989,314.005 181.5,315.5C 179.344,322.559 178.011,329.892 177.5,337.5C 177.5,337.833 177.5,338.167 177.5,338.5C 176.883,338.611 176.383,338.944 176,339.5C 175.304,342.478 174.804,345.478 174.5,348.5C 169.167,348.5 163.833,348.5 158.5,348.5C 158.5,347.167 158.5,345.833 158.5,344.5C 160.098,333.937 162.098,323.437 164.5,313C 164.167,312.167 163.833,311.333 163.5,310.5C 160.979,311.785 158.313,312.452 155.5,312.5C 155.143,327.051 149.143,338.551 137.5,347C 126.618,352.739 116.952,351.239 108.5,342.5C 105.422,346.374 101.422,348.707 96.5,349.5C 92.3735,349.428 88.3735,348.761 84.5,347.5C 80.1483,344.976 78.1483,341.143 78.5,336C 79.5933,327.7 81.2599,319.533 83.5,311.5C 84.6433,308.024 84.8099,304.358 84,300.5C 83.6174,299.944 83.1174,299.611 82.5,299.5C 79.0295,298.875 76.1962,299.875 74,302.5C 71.6893,305.792 70.5226,309.458 70.5,313.5C 69.0762,315.515 68.4095,317.848 68.5,320.5C 67.7814,322.764 67.448,325.097 67.5,327.5C 65.9605,329.838 65.2938,332.505 65.5,335.5C 64.2101,336.058 63.3768,337.058 63,338.5C 62.5026,341.146 62.3359,343.813 62.5,346.5C 62.5,347.5 62.5,348.5 62.5,349.5C 56.5,349.5 50.5,349.5 44.5,349.5C 50.1659,321.504 55.8326,293.504 61.5,265.5C 67.766,264.272 74.0993,263.605 80.5,263.5C 79.4172,267.085 78.7506,270.751 78.5,274.5 Z"/></g>
<g><path style="opacity:1" fill="#f5f5f5" d="M 515.5,272.5 C 514.343,275.273 513.676,278.273 513.5,281.5C 512.699,283.042 512.366,284.708 512.5,286.5C 510.727,288.6 510.394,290.934 511.5,293.5C 513.261,292.965 514.594,291.965 515.5,290.5C 516.058,289.21 517.058,288.377 518.5,288C 525.523,286.354 531.689,287.854 537,292.5C 539.135,301.639 538.635,310.639 535.5,319.5C 532.416,324.493 531.749,329.827 533.5,335.5C 534.667,336.815 536.167,337.481 538,337.5C 540.542,336.795 542.708,335.461 544.5,333.5C 545.748,332.666 546.415,331.333 546.5,329.5C 547.164,325.524 547.497,321.524 547.5,317.5C 547.861,313.085 549.194,309.085 551.5,305.5C 552.906,305.027 553.573,304.027 553.5,302.5C 561.104,288.02 572.437,283.687 587.5,289.5C 593.613,287.599 599.947,286.932 606.5,287.5C 606.31,291.923 605.643,296.256 604.5,300.5C 603.076,302.515 602.41,304.848 602.5,307.5C 601.115,313.091 600.115,318.757 599.5,324.5C 597.983,326.462 597.316,328.795 597.5,331.5C 597.507,333.369 597.84,335.036 598.5,336.5C 598.611,337.117 598.944,337.617 599.5,338C 601.5,338.667 603.5,338.667 605.5,338C 607.956,335.592 609.789,332.759 611,329.5C 613.951,317.243 616.451,304.909 618.5,292.5C 617.5,292.5 616.5,292.5 615.5,292.5C 615.5,290.833 615.5,289.167 615.5,287.5C 617.167,287.5 618.833,287.5 620.5,287.5C 620.788,284.061 621.454,280.728 622.5,277.5C 623.924,275.485 624.59,273.152 624.5,270.5C 628.943,269.199 633.609,268.532 638.5,268.5C 639.978,268.238 641.311,268.571 642.5,269.5C 641.652,271.409 641.318,273.409 641.5,275.5C 640.518,279.316 639.851,283.316 639.5,287.5C 641.5,287.5 643.5,287.5 645.5,287.5C 645.5,289.167 645.5,290.833 645.5,292.5C 642.753,292.187 640.086,292.52 637.5,293.5C 636.652,295.409 636.318,297.409 636.5,299.5C 635.076,301.515 634.41,303.848 634.5,306.5C 632.392,316.093 630.892,325.76 630,335.5C 632.153,337.444 634.653,337.944 637.5,337C 639.037,335.293 640.704,333.793 642.5,332.5C 644,330.768 645.667,329.101 647.5,327.5C 648.713,327.747 649.38,328.414 649.5,329.5C 644.664,343.245 634.998,350.079 620.5,350C 617.405,349.065 615.071,347.231 613.5,344.5C 613.384,340.437 612.051,339.77 609.5,342.5C 603.206,349.49 595.539,351.657 586.5,349C 583.493,346.834 581.493,344.001 580.5,340.5C 575.548,346.06 569.381,349.393 562,350.5C 555.128,350.129 550.295,346.795 547.5,340.5C 542.979,346.429 536.979,349.762 529.5,350.5C 523.959,350.593 519.959,348.26 517.5,343.5C 516.559,336.872 516.559,330.206 517.5,323.5C 517.642,319.944 518.476,316.61 520,313.5C 520.799,308.913 520.632,304.413 519.5,300C 517.5,299.333 515.5,299.333 513.5,300C 512,301.5 510.5,303 509,304.5C 508.034,309.679 506.867,314.679 505.5,319.5C 504.442,320.6 503.608,321.934 503,323.5C 502.535,327.848 502.035,332.181 501.5,336.5C 500.781,338.764 500.448,341.097 500.5,343.5C 500.167,345.5 499.833,347.5 499.5,349.5C 493.5,349.5 487.5,349.5 481.5,349.5C 481.907,345.797 482.574,342.13 483.5,338.5C 483.167,337.833 482.833,337.167 482.5,336.5C 471.509,349.336 458.175,352.836 442.5,347C 439.033,344.304 437.033,340.804 436.5,336.5C 436.612,329.82 436.946,323.153 437.5,316.5C 439.31,313.855 440.31,310.855 440.5,307.5C 448.092,289.198 461.092,283.198 479.5,289.5C 481.317,294.241 481.984,299.241 481.5,304.5C 480.373,305.122 479.373,305.955 478.5,307C 476.613,307.78 474.946,307.613 473.5,306.5C 473.817,302.298 473.483,298.298 472.5,294.5C 467.539,293.412 464.206,295.412 462.5,300.5C 461.094,300.973 460.427,301.973 460.5,303.5C 456.244,313.424 454.411,323.758 455,334.5C 456.478,338.48 459.312,340.146 463.5,339.5C 468.13,339.012 472.463,337.679 476.5,335.5C 480.167,333.833 482.833,331.167 484.5,327.5C 485.743,324.323 486.743,320.99 487.5,317.5C 489.067,316.319 489.901,314.653 490,312.5C 490.497,309.854 490.664,307.187 490.5,304.5C 490.5,304.167 490.5,303.833 490.5,303.5C 492.067,302.319 492.901,300.653 493,298.5C 493.497,295.854 493.664,293.187 493.5,290.5C 493.5,290.167 493.5,289.833 493.5,289.5C 495.067,288.319 495.901,286.653 496,284.5C 496.497,281.854 496.664,279.187 496.5,276.5C 496.594,272.864 497.261,269.364 498.5,266C 504.687,264.268 511.02,263.435 517.5,263.5C 517.142,266.689 516.475,269.689 515.5,272.5 Z"/></g>
<g><path style="opacity:1" fill="#3f3f3f" d="M 638.5,268.5 C 639.919,267.549 641.585,267.216 643.5,267.5C 643.663,269.857 643.497,272.19 643,274.5C 642.617,275.056 642.117,275.389 641.5,275.5C 641.318,273.409 641.652,271.409 642.5,269.5C 641.311,268.571 639.978,268.238 638.5,268.5 Z"/></g>
<g><path style="opacity:1" fill="#909090" d="M 624.5,270.5 C 624.59,273.152 623.924,275.485 622.5,277.5C 622.41,274.848 623.076,272.515 624.5,270.5 Z"/></g>
<g><path style="opacity:1" fill="#acacac" d="M 78.5,274.5 C 77.9434,279.052 76.9434,283.385 75.5,287.5C 75.335,284.15 75.5017,280.817 76,277.5C 76.3768,276.058 77.2101,275.058 78.5,274.5 Z"/></g>
<g><path style="opacity:1" fill="#525252" d="M 515.5,272.5 C 515.664,275.187 515.497,277.854 515,280.5C 514.617,281.056 514.117,281.389 513.5,281.5C 513.676,278.273 514.343,275.273 515.5,272.5 Z"/></g>
<g><path style="opacity:1" fill="#a8a8a8" d="M 496.5,276.5 C 496.664,279.187 496.497,281.854 496,284.5C 495.901,286.653 495.067,288.319 493.5,289.5C 493.882,284.908 494.882,280.575 496.5,276.5 Z"/></g>
<g><path style="opacity:1" fill="#c9c9c9" d="M 217.5,287.5 C 223.5,287.5 229.5,287.5 235.5,287.5C 235.091,291.876 234.425,296.21 233.5,300.5C 232.833,301.5 232.167,302.5 231.5,303.5C 232.426,298.537 233.092,293.537 233.5,288.5C 228.073,288.218 222.74,288.551 217.5,289.5C 217.5,288.833 217.5,288.167 217.5,287.5 Z"/></g>
<g><path style="opacity:1" fill="#f5f5f5" d="M 339.5,292.5 C 340.509,297.285 341.509,301.952 342.5,306.5C 345.988,306.295 349.321,305.461 352.5,304C 353.767,300.812 354.767,297.645 355.5,294.5C 356.924,292.485 357.59,290.152 357.5,287.5C 363.5,287.5 369.5,287.5 375.5,287.5C 375.343,288.873 375.51,290.207 376,291.5C 381.966,287.197 388.466,286.364 395.5,289C 397.66,289.996 399.327,291.496 400.5,293.5C 401.36,297.434 401.693,301.434 401.5,305.5C 400.833,309.833 400.167,314.167 399.5,318.5C 397.926,320.102 397.259,322.102 397.5,324.5C 396.717,328.146 396.55,331.812 397,335.5C 399.795,338.113 402.629,338.113 405.5,335.5C 407.293,332.749 408.959,329.916 410.5,327C 412.473,326.505 414.473,326.338 416.5,326.5C 415.374,330.749 413.707,334.749 411.5,338.5C 410.094,338.973 409.427,339.973 409.5,341.5C 403.539,349.098 395.872,351.598 386.5,349C 383.298,347.298 380.965,344.798 379.5,341.5C 378.188,336.682 378.188,332.015 379.5,327.5C 381.067,326.319 381.901,324.653 382,322.5C 382.497,319.854 382.664,317.187 382.5,314.5C 383.814,309.652 383.814,304.652 382.5,299.5C 379.799,298.131 377.299,298.464 375,300.5C 372.636,304.219 371.136,308.219 370.5,312.5C 368.926,314.102 368.259,316.102 368.5,318.5C 368.675,320.621 368.341,322.621 367.5,324.5C 365.77,328.883 364.77,333.55 364.5,338.5C 364.435,341.428 363.768,344.095 362.5,346.5C 357.13,348.379 351.463,349.045 345.5,348.5C 346.815,343.256 347.482,337.923 347.5,332.5C 348.117,332.389 348.617,332.056 349,331.5C 350.652,324.563 351.819,317.563 352.5,310.5C 351.209,310.263 350.209,310.596 349.5,311.5C 347.139,311.674 344.806,312.007 342.5,312.5C 340.825,315.507 340.159,318.84 340.5,322.5C 339.901,325.963 338.901,329.296 337.5,332.5C 336.094,332.973 335.427,333.973 335.5,335.5C 326.891,349.821 314.891,353.654 299.5,347C 293.822,341.987 291.489,335.654 292.5,328C 292.502,324.979 292.836,322.146 293.5,319.5C 294.924,317.485 295.59,315.152 295.5,312.5C 296.167,312.5 296.5,312.167 296.5,311.5C 298.951,308.26 300.618,304.593 301.5,300.5C 309.943,287.186 321.61,283.352 336.5,289C 337.71,290.039 338.71,291.206 339.5,292.5 Z"/></g>
<g><path style="opacity:1" fill="#f7f7f7" d="M 231.5,303.5 C 231.5,304.5 231.5,305.5 231.5,306.5C 228.836,313.471 227.169,320.804 226.5,328.5C 224.418,336.103 227.085,338.936 234.5,337C 237.572,334.191 239.905,330.858 241.5,327C 247.351,325.579 248.851,327.413 246,332.5C 241.303,340.866 234.469,346.699 225.5,350C 213.976,351.311 208.309,346.144 208.5,334.5C 209.19,326.385 210.523,318.385 212.5,310.5C 213.924,308.485 214.59,306.152 214.5,303.5C 214.704,300.482 215.037,297.482 215.5,294.5C 216.537,293.07 217.204,291.403 217.5,289.5C 222.74,288.551 228.073,288.218 233.5,288.5C 233.092,293.537 232.426,298.537 231.5,303.5 Z"/></g>
<g><path style="opacity:1" fill="#f4f4f4" d="M 288.5,298.5 C 286.75,299.659 285.75,301.326 285.5,303.5C 284.662,303.842 284.328,304.508 284.5,305.5C 282.75,306.659 281.75,308.326 281.5,310.5C 279.833,313.5 278.167,316.5 276.5,319.5C 275.094,319.973 274.427,320.973 274.5,322.5C 273.662,322.842 273.328,323.508 273.5,324.5C 271.75,325.659 270.75,327.326 270.5,329.5C 269.662,329.842 269.328,330.508 269.5,331.5C 267.75,332.659 266.75,334.326 266.5,336.5C 266.5,337.833 266.5,339.167 266.5,340.5C 270.722,340.922 274.722,340.255 278.5,338.5C 278.376,337.893 278.043,337.56 277.5,337.5C 277.253,335.142 277.919,333.142 279.5,331.5C 288.534,328.874 291.534,332.208 288.5,341.5C 286.761,344.243 284.427,346.243 281.5,347.5C 268.859,348.398 256.192,348.732 243.5,348.5C 243.5,347.5 243.5,346.5 243.5,345.5C 244.906,345.027 245.573,344.027 245.5,342.5C 253.718,326.399 262.718,310.732 272.5,295.5C 268.555,294.509 264.555,294.176 260.5,294.5C 262.868,303.3 259.535,306.8 250.5,305C 249.748,304.329 249.414,303.496 249.5,302.5C 249.337,300.143 249.503,297.81 250,295.5C 251.481,294.529 252.315,293.196 252.5,291.5C 253.749,289.864 255.416,288.697 257.5,288C 269.847,287.167 282.18,287.334 294.5,288.5C 291.471,291.226 289.471,294.559 288.5,298.5 Z"/></g>
<g><path style="opacity:1" fill="#6a6a6a" d="M 217.5,287.5 C 217.5,288.167 217.5,288.833 217.5,289.5C 217.204,291.403 216.537,293.07 215.5,294.5C 215.171,291.772 215.837,289.438 217.5,287.5 Z"/></g>
<g><path style="opacity:1" fill="#9b9b9b" d="M 252.5,291.5 C 252.315,293.196 251.481,294.529 250,295.5C 249.503,297.81 249.337,300.143 249.5,302.5C 247.518,298.024 248.518,294.357 252.5,291.5 Z"/></g>
<g><path style="opacity:1" fill="#808080" d="M 357.5,287.5 C 357.59,290.152 356.924,292.485 355.5,294.5C 355.171,291.772 355.837,289.438 357.5,287.5 Z"/></g>
<g><path style="opacity:1" fill="#b3b3b3" d="M 512.5,286.5 C 512.34,288.199 512.506,289.866 513,291.5C 513.671,290.748 514.504,290.414 515.5,290.5C 514.594,291.965 513.261,292.965 511.5,293.5C 510.394,290.934 510.727,288.6 512.5,286.5 Z"/></g>
<g><path style="opacity:1" fill="#0e0e0e" d="M 137.5,295.5 C 142.283,294.615 144.616,296.615 144.5,301.5C 142.078,302.692 141.078,304.692 141.5,307.5C 145.192,318.987 142.525,329.154 133.5,338C 128.91,339.615 126.077,338.115 125,333.5C 124.057,327.564 124.557,321.897 126.5,316.5C 128.074,314.898 128.741,312.898 128.5,310.5C 129.167,308.5 129.833,306.5 130.5,304.5C 131.906,304.027 132.573,303.027 132.5,301.5C 133.419,298.911 135.086,296.911 137.5,295.5 Z"/></g>
<g><path style="opacity:1" fill="#0d0d0d" d="M 330.5,302.5 C 328.286,303.392 327.286,305.058 327.5,307.5C 327.34,309.355 328.007,310.688 329.5,311.5C 329.833,312.167 330.167,312.833 330.5,313.5C 330.167,316.167 329.833,318.833 329.5,321.5C 328.129,323.936 327.129,326.603 326.5,329.5C 324.745,332.436 322.745,335.269 320.5,338C 315.946,339.412 313.112,337.912 312,333.5C 310.417,318.622 314.583,305.788 324.5,295C 331.25,293.531 333.25,296.031 330.5,302.5 Z"/></g>
<g><path style="opacity:1" fill="#0a0a0a" d="M 585.5,296.5 C 585.448,300.198 585.114,303.865 584.5,307.5C 582.609,315.117 580.775,322.783 579,330.5C 576.772,335.766 572.938,337.933 567.5,337C 563.869,324.279 565.369,312.112 572,300.5C 573.833,298.667 575.667,296.833 577.5,295C 579.833,294.333 582.167,294.333 584.5,295C 585.056,295.383 585.389,295.883 585.5,296.5 Z"/></g>
<g><path style="opacity:1" fill="#b8b8b8" d="M 479.5,289.5 C 482.251,291.549 483.584,294.382 483.5,298C 483.503,300.484 482.837,302.651 481.5,304.5C 481.984,299.241 481.317,294.241 479.5,289.5 Z"/></g>
<g><path style="opacity:1" fill="#a6a6a6" d="M 493.5,290.5 C 493.664,293.187 493.497,295.854 493,298.5C 492.901,300.653 492.067,302.319 490.5,303.5C 490.882,298.908 491.882,294.575 493.5,290.5 Z"/></g>
<g><path style="opacity:1" fill="#3c3c3c" d="M 137.5,295.5 C 143.652,293.325 145.985,295.325 144.5,301.5C 144.616,296.615 142.283,294.615 137.5,295.5 Z"/></g>
<g><path style="opacity:1" fill="#ababab" d="M 339.5,292.5 C 340.117,292.611 340.617,292.944 341,293.5C 342.075,297.77 342.575,302.103 342.5,306.5C 341.509,301.952 340.509,297.285 339.5,292.5 Z"/></g>
<g><path style="opacity:1" fill="#747474" d="M 400.5,293.5 C 401.117,293.611 401.617,293.944 402,294.5C 402.81,298.358 402.643,302.024 401.5,305.5C 401.693,301.434 401.36,297.434 400.5,293.5 Z"/></g>
<g><path style="opacity:1" fill="#535353" d="M 288.5,298.5 C 288.408,300.848 287.408,302.514 285.5,303.5C 285.75,301.326 286.75,299.659 288.5,298.5 Z"/></g>
<g><path style="opacity:1" fill="#7e7e7e" d="M 462.5,300.5 C 462.573,302.027 461.906,303.027 460.5,303.5C 460.427,301.973 461.094,300.973 462.5,300.5 Z"/></g>
<g><path style="opacity:1" fill="#7f7f7f" d="M 114.5,301.5 C 114.262,303.404 113.262,304.738 111.5,305.5C 111.738,303.596 112.738,302.262 114.5,301.5 Z"/></g>
<g><path style="opacity:1" fill="#777777" d="M 132.5,301.5 C 132.573,303.027 131.906,304.027 130.5,304.5C 130.427,302.973 131.094,301.973 132.5,301.5 Z"/></g>
<g><path style="opacity:1" fill="#979797" d="M 585.5,296.5 C 586.902,300.29 586.569,303.956 584.5,307.5C 585.114,303.865 585.448,300.198 585.5,296.5 Z"/></g>
<g><path style="opacity:1" fill="#818181" d="M 553.5,302.5 C 553.573,304.027 552.906,305.027 551.5,305.5C 551.427,303.973 552.094,302.973 553.5,302.5 Z"/></g>
<g><path style="opacity:1" fill="#717171" d="M 82.5,299.5 C 83.1174,299.611 83.6174,299.944 84,300.5C 84.8099,304.358 84.6433,308.024 83.5,311.5C 83.693,307.434 83.3597,303.434 82.5,299.5 Z"/></g>
<g><path style="opacity:1" fill="#a2a2a2" d="M 472.5,294.5 C 473.483,298.298 473.817,302.298 473.5,306.5C 472.414,306.38 471.747,305.713 471.5,304.5C 472.327,301.217 472.66,297.884 472.5,294.5 Z"/></g>
<g><path style="opacity:1" fill="#848484" d="M 636.5,299.5 C 636.59,302.152 635.924,304.485 634.5,306.5C 634.41,303.848 635.076,301.515 636.5,299.5 Z"/></g>
<g><path style="opacity:1" fill="#515151" d="M 233.5,300.5 C 233.59,303.152 232.924,305.485 231.5,307.5C 231.5,307.167 231.5,306.833 231.5,306.5C 231.5,305.5 231.5,304.5 231.5,303.5C 232.167,302.5 232.833,301.5 233.5,300.5 Z"/></g>
<g><path style="opacity:1" fill="#a4a4a4" d="M 330.5,302.5 C 329.701,305.43 329.368,308.43 329.5,311.5C 328.007,310.688 327.34,309.355 327.5,307.5C 327.286,305.058 328.286,303.392 330.5,302.5 Z"/></g>
<g><path style="opacity:1" fill="#8d8d8d" d="M 604.5,300.5 C 604.59,303.152 603.924,305.485 602.5,307.5C 602.41,304.848 603.076,302.515 604.5,300.5 Z"/></g>
<g><path style="opacity:1" fill="#9e9e9e" d="M 301.5,300.5 C 300.618,304.593 298.951,308.26 296.5,311.5C 296.837,307.164 298.504,303.497 301.5,300.5 Z"/></g>
<g><path style="opacity:1" fill="#9c9c9c" d="M 214.5,303.5 C 214.59,306.152 213.924,308.485 212.5,310.5C 212.171,307.772 212.837,305.438 214.5,303.5 Z"/></g>
<g><path style="opacity:1" fill="#adadad" d="M 231.5,306.5 C 231.5,306.833 231.5,307.167 231.5,307.5C 230.193,314.727 228.526,321.727 226.5,328.5C 227.169,320.804 228.836,313.471 231.5,306.5 Z"/></g>
<g><path style="opacity:1" fill="#505050" d="M 284.5,305.5 C 284.408,307.848 283.408,309.514 281.5,310.5C 281.75,308.326 282.75,306.659 284.5,305.5 Z"/></g>
<g><path style="opacity:1" fill="#a5a5a5" d="M 490.5,304.5 C 490.664,307.187 490.497,309.854 490,312.5C 489.901,314.653 489.067,316.319 487.5,317.5C 487.882,312.908 488.882,308.575 490.5,304.5 Z"/></g>
<g><path style="opacity:1" fill="#868686" d="M 440.5,307.5 C 440.31,310.855 439.31,313.855 437.5,316.5C 437.528,313.084 438.528,310.084 440.5,307.5 Z"/></g>
<g><path style="opacity:1" fill="#6d6d6d" d="M 101.5,309.5 C 101.59,312.152 100.924,314.485 99.5,316.5C 99.4095,313.848 100.076,311.515 101.5,309.5 Z"/></g>
<g><path style="opacity:1" fill="#585858" d="M 128.5,310.5 C 128.741,312.898 128.074,314.898 126.5,316.5C 126.259,314.102 126.926,312.102 128.5,310.5 Z"/></g>
<g><path style="opacity:1" fill="#656565" d="M 183.5,311.5 C 183.59,314.152 182.924,316.485 181.5,318.5C 181.5,317.5 181.5,316.5 181.5,315.5C 181.989,314.005 182.655,312.671 183.5,311.5 Z"/></g>
<g><path style="opacity:1" fill="#7f7f7f" d="M 370.5,312.5 C 370.741,314.898 370.074,316.898 368.5,318.5C 368.259,316.102 368.926,314.102 370.5,312.5 Z"/></g>
<g><path style="opacity:1" fill="#a6a6a6" d="M 181.5,315.5 C 181.5,316.5 181.5,317.5 181.5,318.5C 180.567,325.051 179.234,331.384 177.5,337.5C 178.011,329.892 179.344,322.559 181.5,315.5 Z"/></g>
<g><path style="opacity:1" fill="#686868" d="M 295.5,312.5 C 295.59,315.152 294.924,317.485 293.5,319.5C 293.41,316.848 294.076,314.515 295.5,312.5 Z"/></g>
<g><path style="opacity:1" fill="#999999" d="M 342.5,312.5 C 342.451,316.078 341.785,319.411 340.5,322.5C 340.159,318.84 340.825,315.507 342.5,312.5 Z"/></g>
<g><path style="opacity:1" fill="#666666" d="M 70.5,313.5 C 70.5905,316.152 69.9238,318.485 68.5,320.5C 68.4095,317.848 69.0762,315.515 70.5,313.5 Z"/></g>
<g><path style="opacity:1" fill="#9f9f9f" d="M 330.5,313.5 C 331.156,314.622 331.489,315.955 331.5,317.5C 331.415,319.333 330.748,320.666 329.5,321.5C 329.833,318.833 330.167,316.167 330.5,313.5 Z"/></g>
<g><path style="opacity:1" fill="#767676" d="M 276.5,319.5 C 276.573,321.027 275.906,322.027 274.5,322.5C 274.427,320.973 275.094,319.973 276.5,319.5 Z"/></g>
<g><path style="opacity:1" fill="#9d9d9d" d="M 382.5,314.5 C 382.664,317.187 382.497,319.854 382,322.5C 381.901,324.653 381.067,326.319 379.5,327.5C 379.882,322.908 380.882,318.575 382.5,314.5 Z"/></g>
<g><path style="opacity:1" fill="#666666" d="M 399.5,318.5 C 399.741,320.898 399.074,322.898 397.5,324.5C 397.259,322.102 397.926,320.102 399.5,318.5 Z"/></g>
<g><path style="opacity:1" fill="#b3b3b3" d="M 505.5,319.5 C 504.628,325.191 503.628,330.858 502.5,336.5C 502.167,336.5 501.833,336.5 501.5,336.5C 502.035,332.181 502.535,327.848 503,323.5C 503.608,321.934 504.442,320.6 505.5,319.5 Z"/></g>
<g><path style="opacity:1" fill="#575757" d="M 99.5,318.5 C 99.5905,321.152 98.9238,323.485 97.5,325.5C 97.4095,322.848 98.0762,320.515 99.5,318.5 Z"/></g>
<g><path style="opacity:1" fill="#717171" d="M 329.5,321.5 C 329.655,324.716 328.655,327.383 326.5,329.5C 327.129,326.603 328.129,323.936 329.5,321.5 Z"/></g>
<g><path style="opacity:1" fill="#b8b8b8" d="M 535.5,319.5 C 533.82,324.61 533.153,329.943 533.5,335.5C 531.749,329.827 532.416,324.493 535.5,319.5 Z"/></g>
<g><path style="opacity:1" fill="#a3a3a3" d="M 547.5,317.5 C 547.497,321.524 547.164,325.524 546.5,329.5C 546.415,331.333 545.748,332.666 544.5,333.5C 545.069,327.971 546.069,322.638 547.5,317.5 Z"/></g>
<g><path style="opacity:1" fill="#a8a8a8" d="M 649.5,329.5 C 649.38,328.414 648.713,327.747 647.5,327.5C 645.667,329.101 644,330.768 642.5,332.5C 642.966,327.665 645.633,325.665 650.5,326.5C 650.737,327.791 650.404,328.791 649.5,329.5 Z"/></g>
<g><path style="opacity:1" fill="#525252" d="M 273.5,324.5 C 273.408,326.848 272.408,328.514 270.5,329.5C 270.75,327.326 271.75,325.659 273.5,324.5 Z"/></g>
<g><path style="opacity:1" fill="#8d8d8d" d="M 437.5,316.5 C 436.946,323.153 436.612,329.82 436.5,336.5C 435.836,334.19 435.503,331.69 435.5,329C 435.394,324.573 436.06,320.406 437.5,316.5 Z"/></g>
<g><path style="opacity:1" fill="#a7a7a7" d="M 349.5,311.5 C 350.209,310.596 351.209,310.263 352.5,310.5C 351.819,317.563 350.652,324.563 349,331.5C 348.617,332.056 348.117,332.389 347.5,332.5C 348.192,325.707 349.525,319.04 351.5,312.5C 351.043,311.702 350.376,311.369 349.5,311.5 Z"/></g>
<g><path style="opacity:1" fill="#b5b5b5" d="M 484.5,327.5 C 482.833,331.167 480.167,333.833 476.5,335.5C 478.833,332.5 481.5,329.833 484.5,327.5 Z"/></g>
<g><path style="opacity:1" fill="#898989" d="M 599.5,324.5 C 598.728,328.452 598.395,332.452 598.5,336.5C 597.84,335.036 597.507,333.369 597.5,331.5C 597.316,328.795 597.983,326.462 599.5,324.5 Z"/></g>
<g><path style="opacity:1" fill="#626262" d="M 67.5,327.5 C 67.4349,330.428 66.7682,333.095 65.5,335.5C 65.2938,332.505 65.9605,329.838 67.5,327.5 Z"/></g>
<g><path style="opacity:1" fill="#707070" d="M 279.5,331.5 C 277.919,333.142 277.253,335.142 277.5,337.5C 276.387,336.054 276.22,334.387 277,332.5C 277.671,331.748 278.504,331.414 279.5,331.5 Z"/></g>
<g><path style="opacity:1" fill="#6b6b6b" d="M 337.5,332.5 C 337.573,334.027 336.906,335.027 335.5,335.5C 335.427,333.973 336.094,332.973 337.5,332.5 Z"/></g>
<g><path style="opacity:1" fill="#9f9f9f" d="M 517.5,323.5 C 516.559,330.206 516.559,336.872 517.5,343.5C 516.883,343.389 516.383,343.056 516,342.5C 515.833,340 515.667,337.5 515.5,335C 515.349,330.888 516.016,327.054 517.5,323.5 Z"/></g>
<g><path style="opacity:1" fill="#4f4f4f" d="M 269.5,331.5 C 269.408,333.848 268.408,335.514 266.5,336.5C 266.75,334.326 267.75,332.659 269.5,331.5 Z"/></g>
<g><path style="opacity:1" fill="#7f7f7f" d="M 367.5,324.5 C 367.344,329.471 366.344,334.138 364.5,338.5C 364.77,333.55 365.77,328.883 367.5,324.5 Z"/></g>
<g><path style="opacity:1" fill="#b7b7b7" d="M 65.5,335.5 C 65.2576,339.479 64.2576,343.146 62.5,346.5C 62.3359,343.813 62.5026,341.146 63,338.5C 63.3768,337.058 64.2101,336.058 65.5,335.5 Z"/></g>
<g><path style="opacity:1" fill="#6e6e6e" d="M 411.5,338.5 C 411.573,340.027 410.906,341.027 409.5,341.5C 409.427,339.973 410.094,338.973 411.5,338.5 Z"/></g>
<g><path style="opacity:1" fill="#636363" d="M 613.5,344.5 C 612.533,343.194 611.199,342.527 609.5,342.5C 612.051,339.77 613.384,340.437 613.5,344.5 Z"/></g>
<g><path style="opacity:1" fill="#5c5c5c" d="M 501.5,336.5 C 501.833,336.5 502.167,336.5 502.5,336.5C 502.59,339.152 501.924,341.485 500.5,343.5C 500.448,341.097 500.781,338.764 501.5,336.5 Z"/></g>
<g><path style="opacity:1" fill="#727272" d="M 245.5,342.5 C 245.573,344.027 244.906,345.027 243.5,345.5C 243.427,343.973 244.094,342.973 245.5,342.5 Z"/></g>
<g><path style="opacity:1" fill="#b4b4b4" d="M 84.5,347.5 C 88.3735,348.761 92.3735,349.428 96.5,349.5C 92.2115,350.981 88.2115,350.315 84.5,347.5 Z"/></g>
<g><path style="opacity:1" fill="#c0c0c0" d="M 177.5,338.5 C 176.833,342.167 176.167,345.833 175.5,349.5C 169.5,349.5 163.5,349.5 157.5,349.5C 157.216,347.585 157.549,345.919 158.5,344.5C 158.5,345.833 158.5,347.167 158.5,348.5C 163.833,348.5 169.167,348.5 174.5,348.5C 174.804,345.478 175.304,342.478 176,339.5C 176.383,338.944 176.883,338.611 177.5,338.5 Z"/></g>
<g><path style="opacity:1" fill="#c6c6c6" d="M 243.5,345.5 C 243.5,346.5 243.5,347.5 243.5,348.5C 256.192,348.732 268.859,348.398 281.5,347.5C 280.737,348.268 279.737,348.768 278.5,349C 266.153,349.833 253.82,349.666 241.5,348.5C 241.942,347.261 242.609,346.261 243.5,345.5 Z"/></g>
<g><path style="opacity:1" fill="#b1b1b1" d="M 347.5,332.5 C 347.482,337.923 346.815,343.256 345.5,348.5C 351.463,349.045 357.13,348.379 362.5,346.5C 362.5,347.5 362.5,348.5 362.5,349.5C 356.5,349.5 350.5,349.5 344.5,349.5C 344.367,343.511 345.367,337.844 347.5,332.5 Z"/></g>
<g><path style="opacity:1" fill="#767676" d="M 573.5,381.5 C 564.178,380.991 554.845,380.658 545.5,380.5C 524.511,381.685 503.511,382.685 482.5,383.5C 503.286,381.183 524.286,379.85 545.5,379.5C 555.056,379.276 564.389,379.942 573.5,381.5 Z"/></g>
<g><path style="opacity:1" fill="#f1f1f1" d="M 573.5,381.5 C 576.939,381.253 580.272,381.586 583.5,382.5C 586.273,383.657 589.273,384.324 592.5,384.5C 593.167,384.5 593.833,384.5 594.5,384.5C 596.102,386.074 598.102,386.741 600.5,386.5C 600.973,387.906 601.973,388.573 603.5,388.5C 620.606,398.088 624.272,411.421 614.5,428.5C 611.5,430.833 608.833,433.5 606.5,436.5C 604.656,437.16 602.99,438.16 601.5,439.5C 599.734,439.566 598.734,438.732 598.5,437C 601.206,433.095 604.039,429.262 607,425.5C 613.29,414.827 611.124,406.494 600.5,400.5C 599.481,398.899 597.981,397.899 596,397.5C 594.97,397.836 594.47,398.503 594.5,399.5C 593.616,403.392 592.283,407.059 590.5,410.5C 588.926,412.102 588.259,414.102 588.5,416.5C 579.38,433.968 569.38,450.968 558.5,467.5C 556.413,468.585 555.08,470.251 554.5,472.5C 552.413,473.585 551.08,475.251 550.5,477.5C 548.413,478.585 547.08,480.251 546.5,482.5C 545.5,482.833 544.833,483.5 544.5,484.5C 540.434,487.563 537.101,491.229 534.5,495.5C 532.5,496.833 530.833,498.5 529.5,500.5C 525.564,502.766 522.231,505.766 519.5,509.5C 509.336,517.413 499.003,525.08 488.5,532.5C 486.973,532.427 485.973,533.094 485.5,534.5C 472.503,541.497 459.503,548.164 446.5,554.5C 442.668,555.443 439.001,556.777 435.5,558.5C 430.15,560.17 424.817,561.836 419.5,563.5C 416.848,563.41 414.515,564.076 412.5,565.5C 410.565,566.15 408.565,566.483 406.5,566.5C 403.848,566.41 401.515,567.076 399.5,568.5C 398.167,568.5 396.833,568.5 395.5,568.5C 392.848,568.41 390.515,569.076 388.5,570.5C 381.974,570.697 375.641,571.364 369.5,572.5C 355.859,573.594 342.192,573.76 328.5,573C 323.703,572.653 319.037,571.819 314.5,570.5C 308.074,568.754 301.407,567.754 294.5,567.5C 294.167,567.5 293.833,567.5 293.5,567.5C 291.898,565.926 289.898,565.259 287.5,565.5C 285.435,565.483 283.435,565.15 281.5,564.5C 277.498,562.39 273.165,561.057 268.5,560.5C 261.442,558.927 254.775,556.594 248.5,553.5C 246.898,551.926 244.898,551.259 242.5,551.5C 239.503,548.504 235.836,546.837 231.5,546.5C 210.767,537.144 192.1,524.811 175.5,509.5C 174.089,507.086 172.089,505.419 169.5,504.5C 165.5,500.833 161.5,497.167 157.5,493.5C 155.57,489.9 152.903,486.9 149.5,484.5C 140.418,473.324 132.085,461.657 124.5,449.5C 124.573,447.973 123.906,446.973 122.5,446.5C 115.516,435.201 110.182,423.201 106.5,410.5C 108.39,410.297 109.89,410.963 111,412.5C 113.489,418.148 115.989,423.814 118.5,429.5C 118.427,431.027 119.094,432.027 120.5,432.5C 121.674,433.514 122.34,434.847 122.5,436.5C 122.427,438.027 123.094,439.027 124.5,439.5C 133.333,452.484 142.667,465.151 152.5,477.5C 156.5,483.5 161.5,488.5 167.5,492.5C 184.565,508.905 203.565,522.571 224.5,533.5C 227.008,535.924 230.008,537.59 233.5,538.5C 235.684,540.585 238.351,541.585 241.5,541.5C 241.973,542.906 242.973,543.573 244.5,543.5C 249.714,545.684 255.047,547.684 260.5,549.5C 265.5,551.943 270.834,553.61 276.5,554.5C 278.042,555.301 279.708,555.634 281.5,555.5C 283.515,556.924 285.848,557.59 288.5,557.5C 290.042,558.301 291.708,558.634 293.5,558.5C 298.83,560.667 304.497,561.667 310.5,561.5C 310.833,561.5 311.167,561.5 311.5,561.5C 315.919,562.972 320.586,563.638 325.5,563.5C 341.181,563.653 356.848,563.319 372.5,562.5C 378.194,562.76 383.527,561.76 388.5,559.5C 389.167,559.5 389.833,559.5 390.5,559.5C 393.495,559.706 396.162,559.04 398.5,557.5C 398.833,557.5 399.167,557.5 399.5,557.5C 402.829,557.785 405.829,557.118 408.5,555.5C 411.37,554.366 414.37,553.7 417.5,553.5C 425.239,552.371 432.239,549.704 438.5,545.5C 450.209,540.147 461.876,534.48 473.5,528.5C 475.848,528.408 477.514,527.408 478.5,525.5C 489.828,517.174 501.161,508.84 512.5,500.5C 513.239,500.631 513.906,500.464 514.5,500C 522.094,492.911 529.094,485.411 535.5,477.5C 538.243,475.761 540.243,473.427 541.5,470.5C 543.587,469.415 544.92,467.749 545.5,465.5C 555.588,450.996 564.921,435.996 573.5,420.5C 577.337,413.994 580.004,406.994 581.5,399.5C 581.833,398.833 582.167,398.167 582.5,397.5C 583.404,396.791 583.737,395.791 583.5,394.5C 579.167,394.5 574.833,394.5 570.5,394.5C 567.5,394.5 564.5,394.5 561.5,394.5C 538.652,393.196 515.652,393.363 492.5,395C 491.177,395.816 490.511,396.983 490.5,398.5C 487.449,402.223 484.782,406.223 482.5,410.5C 480.413,411.585 479.08,413.251 478.5,415.5C 476.413,416.585 475.08,418.251 474.5,420.5C 463.019,431.992 450.686,442.325 437.5,451.5C 435.326,451.75 433.659,452.75 432.5,454.5C 429.95,455.057 427.95,456.39 426.5,458.5C 423.509,458.166 421.176,459.166 419.5,461.5C 416.519,461.182 414.185,462.182 412.5,464.5C 408.668,465.443 405.001,466.777 401.5,468.5C 399.901,468.232 398.568,468.566 397.5,469.5C 394.008,469.446 391.008,470.446 388.5,472.5C 387.167,472.5 385.833,472.5 384.5,472.5C 376.872,473.78 369.206,474.78 361.5,475.5C 353.493,475.666 345.493,475.5 337.5,475C 327.814,473.832 318.147,472.665 308.5,471.5C 308.167,471.5 307.833,471.5 307.5,471.5C 304.495,469.723 301.162,468.723 297.5,468.5C 296.833,468.5 296.5,468.167 296.5,467.5C 295.942,466.21 294.942,465.377 293.5,465C 289.811,464.148 286.144,463.315 282.5,462.5C 258.124,451.642 237.624,435.642 221,414.5C 220.51,413.207 220.343,411.873 220.5,410.5C 221.873,410.343 223.207,410.51 224.5,411C 240.766,431.277 260.766,446.444 284.5,456.5C 286.102,458.074 288.102,458.741 290.5,458.5C 294.344,460.405 298.344,462.239 302.5,464C 305.478,464.696 308.478,465.196 311.5,465.5C 313.861,465.674 316.194,466.007 318.5,466.5C 321.986,467.533 325.653,468.367 329.5,469C 339.828,469.5 350.161,469.666 360.5,469.5C 368.846,468.57 377.18,467.403 385.5,466C 386.056,465.617 386.389,465.117 386.5,464.5C 387.568,463.566 388.901,463.232 390.5,463.5C 394.915,463.139 398.915,461.806 402.5,459.5C 405.313,459.975 407.313,458.975 408.5,456.5C 409.167,456.5 409.833,456.5 410.5,456.5C 411.873,456.657 413.207,456.49 414.5,456C 417.336,454.609 419.669,452.776 421.5,450.5C 422.514,449.326 423.847,448.66 425.5,448.5C 427.848,448.408 429.514,447.408 430.5,445.5C 432.848,445.408 434.514,444.408 435.5,442.5C 440.214,438.454 445.214,434.788 450.5,431.5C 457.167,426.833 462.833,421.167 467.5,414.5C 469.587,413.415 470.92,411.749 471.5,409.5C 473.587,408.415 474.92,406.749 475.5,404.5C 476.471,402.517 477.471,400.517 478.5,398.5C 478.833,398.5 479.167,398.5 479.5,398.5C 480.404,397.791 480.737,396.791 480.5,395.5C 471.318,395.173 462.318,395.507 453.5,396.5C 451.901,396.232 450.568,396.566 449.5,397.5C 418.979,397.621 388.645,398.621 358.5,400.5C 337.318,400.445 316.318,401.111 295.5,402.5C 294.5,402.5 293.5,402.5 292.5,402.5C 283.818,402.521 275.152,402.854 266.5,403.5C 263.5,403.5 260.5,403.5 257.5,403.5C 257.5,402.5 257.5,401.5 257.5,400.5C 282.989,398.274 308.322,395.941 333.5,393.5C 343.699,393.572 353.699,392.905 363.5,391.5C 364.167,391.5 364.833,391.5 365.5,391.5C 379.709,391.342 393.709,390.342 407.5,388.5C 417.713,388.772 427.713,388.105 437.5,386.5C 443.822,385.986 450.155,385.653 456.5,385.5C 465.384,385.739 474.051,385.072 482.5,383.5C 503.511,382.685 524.511,381.685 545.5,380.5C 554.845,380.658 564.178,380.991 573.5,381.5 Z"/></g>
<g><path style="opacity:1" fill="#989898" d="M 583.5,382.5 C 586.829,382.215 589.829,382.882 592.5,384.5C 589.273,384.324 586.273,383.657 583.5,382.5 Z"/></g>
<g><path style="opacity:1" fill="#8a8a8a" d="M 482.5,383.5 C 474.051,385.072 465.384,385.739 456.5,385.5C 464.944,383.863 473.611,383.197 482.5,383.5 Z"/></g>
<g><path style="opacity:1" fill="#505050" d="M 594.5,384.5 C 596.898,384.259 598.898,384.926 600.5,386.5C 598.102,386.741 596.102,386.074 594.5,384.5 Z"/></g>
<g><path style="opacity:1" fill="#808080" d="M 437.5,386.5 C 427.713,388.105 417.713,388.772 407.5,388.5C 417.301,387.095 427.301,386.428 437.5,386.5 Z"/></g>
<g><path style="opacity:1" fill="#7c7c7c" d="M 600.5,386.5 C 602.027,386.427 603.027,387.094 603.5,388.5C 601.973,388.573 600.973,387.906 600.5,386.5 Z"/></g>
<g><path style="opacity:1" fill="#8c8c8c" d="M 407.5,388.5 C 393.709,390.342 379.709,391.342 365.5,391.5C 379.293,389.673 393.293,388.673 407.5,388.5 Z"/></g>
<g><path style="opacity:1" fill="#7c7c7c" d="M 363.5,391.5 C 353.699,392.905 343.699,393.572 333.5,393.5C 343.296,392.021 353.296,391.354 363.5,391.5 Z"/></g>
<g><path style="opacity:1" fill="#949494" d="M 561.5,394.5 C 538.816,394.259 516.149,394.759 493.5,396C 492.627,397.045 491.627,397.878 490.5,398.5C 490.511,396.983 491.177,395.816 492.5,395C 515.652,393.363 538.652,393.196 561.5,394.5 Z"/></g>
<g><path style="opacity:1" fill="#a5a5a5" d="M 570.5,394.5 C 574.833,394.5 579.167,394.5 583.5,394.5C 583.737,395.791 583.404,396.791 582.5,397.5C 578.768,395.869 574.768,394.869 570.5,394.5 Z"/></g>
<g><path style="opacity:1" fill="#9d9d9d" d="M 453.5,396.5 C 462.318,395.507 471.318,395.173 480.5,395.5C 480.737,396.791 480.404,397.791 479.5,398.5C 471.231,396.53 462.565,395.864 453.5,396.5 Z"/></g>
<g><path style="opacity:1" fill="#848484" d="M 333.5,393.5 C 308.322,395.941 282.989,398.274 257.5,400.5C 257.5,401.5 257.5,402.5 257.5,403.5C 260.5,403.5 263.5,403.5 266.5,403.5C 266.5,403.833 266.5,404.167 266.5,404.5C 263.167,404.5 259.833,404.5 256.5,404.5C 256.5,403.167 256.5,401.833 256.5,400.5C 256.611,399.883 256.944,399.383 257.5,399C 282.799,396.594 308.132,394.761 333.5,393.5 Z"/></g>
<g><path style="opacity:1" fill="#2e2e2e" d="M 449.5,397.5 C 450.568,396.566 451.901,396.232 453.5,396.5C 462.565,395.864 471.231,396.53 479.5,398.5C 479.167,398.5 478.833,398.5 478.5,398.5C 469.014,397.506 459.348,397.173 449.5,397.5 Z"/></g>
<g><path style="opacity:1" fill="#979797" d="M 600.5,400.5 C 598.565,399.85 596.565,399.517 594.5,399.5C 594.47,398.503 594.97,397.836 596,397.5C 597.981,397.899 599.481,398.899 600.5,400.5 Z"/></g>
<g><path style="opacity:1" fill="#5f5f5f" d="M 358.5,400.5 C 337.685,401.996 316.685,402.662 295.5,402.5C 316.318,401.111 337.318,400.445 358.5,400.5 Z"/></g>
<g><path style="opacity:1" fill="#646464" d="M 292.5,402.5 C 284.061,404.194 275.395,404.861 266.5,404.5C 266.5,404.167 266.5,403.833 266.5,403.5C 275.152,402.854 283.818,402.521 292.5,402.5 Z"/></g>
<g><path style="opacity:1" fill="#353535" d="M 256.5,400.5 C 256.5,401.833 256.5,403.167 256.5,404.5C 259.833,404.5 263.167,404.5 266.5,404.5C 263.038,405.482 259.371,405.815 255.5,405.5C 255.216,403.585 255.549,401.919 256.5,400.5 Z"/></g>
<g><path style="opacity:1" fill="#919191" d="M 475.5,404.5 C 474.92,406.749 473.587,408.415 471.5,409.5C 472.08,407.251 473.413,405.585 475.5,404.5 Z"/></g>
<g><path style="opacity:1" fill="#9f9f9f" d="M 581.5,399.5 C 580.004,406.994 577.337,413.994 573.5,420.5C 575.407,413.097 578.074,406.097 581.5,399.5 Z"/></g>
<g><path style="opacity:1" fill="#919191" d="M 471.5,409.5 C 470.92,411.749 469.587,413.415 467.5,414.5C 468.08,412.251 469.413,410.585 471.5,409.5 Z"/></g>
<g><path style="opacity:1" fill="#5f5f5f" d="M 482.5,410.5 C 481.92,412.749 480.587,414.415 478.5,415.5C 479.08,413.251 480.413,411.585 482.5,410.5 Z"/></g>
<g><path style="opacity:1" fill="#515151" d="M 590.5,410.5 C 590.741,412.898 590.074,414.898 588.5,416.5C 588.259,414.102 588.926,412.102 590.5,410.5 Z"/></g>
<g><path style="opacity:1" fill="#adadad" d="M 467.5,414.5 C 462.833,421.167 457.167,426.833 450.5,431.5C 455.833,425.5 461.5,419.833 467.5,414.5 Z"/></g>
<g><path style="opacity:1" fill="#5b5b5b" d="M 478.5,415.5 C 477.92,417.749 476.587,419.415 474.5,420.5C 475.08,418.251 476.413,416.585 478.5,415.5 Z"/></g>
<g><path style="opacity:1" fill="#787878" d="M 118.5,429.5 C 119.906,429.973 120.573,430.973 120.5,432.5C 119.094,432.027 118.427,431.027 118.5,429.5 Z"/></g>
<g><path style="opacity:1" fill="#3f3f3f" d="M 614.5,428.5 C 612.833,432.167 610.167,434.833 606.5,436.5C 608.833,433.5 611.5,430.833 614.5,428.5 Z"/></g>
<g><path style="opacity:1" fill="#7d7d7d" d="M 122.5,436.5 C 123.906,436.973 124.573,437.973 124.5,439.5C 123.094,439.027 122.427,438.027 122.5,436.5 Z"/></g>
<g><path style="opacity:1" fill="#909090" d="M 435.5,442.5 C 434.514,444.408 432.848,445.408 430.5,445.5C 431.659,443.75 433.326,442.75 435.5,442.5 Z"/></g>
<g><path style="opacity:1" fill="#f75494" d="M 475.5,444.5 C 479.226,444.177 482.893,444.511 486.5,445.5C 484.156,449.942 480.489,451.609 475.5,450.5C 475.5,453.167 475.5,455.833 475.5,458.5C 473.127,459.203 471.127,460.536 469.5,462.5C 469.334,458.486 469.501,454.486 470,450.5C 472.04,448.63 473.873,446.63 475.5,444.5 Z"/></g>
<g><path style="opacity:1" fill="#909090" d="M 430.5,445.5 C 429.514,447.408 427.848,448.408 425.5,448.5C 426.659,446.75 428.326,445.75 430.5,445.5 Z"/></g>
<g><path style="opacity:1" fill="#747474" d="M 122.5,446.5 C 123.906,446.973 124.573,447.973 124.5,449.5C 123.094,449.027 122.427,448.027 122.5,446.5 Z"/></g>
<g><path style="opacity:1" fill="#9e3959" d="M 208.5,444.5 C 206.833,446.5 205.167,448.5 203.5,450.5C 202.3,453.698 202.3,457.031 203.5,460.5C 202.883,460.389 202.383,460.056 202,459.5C 199.673,452.335 201.839,447.335 208.5,444.5 Z"/></g>
<g><path style="opacity:1" fill="#e65285" d="M 492.5,451.5 C 491.298,454.056 489.631,456.389 487.5,458.5C 487.167,458.5 486.833,458.5 486.5,458.5C 486.34,456.847 485.674,455.514 484.5,454.5C 483.373,453.878 482.373,453.045 481.5,452C 480.167,451.333 478.833,451.333 477.5,452C 476.602,455.121 476.435,458.288 477,461.5C 475.611,463.227 473.944,464.561 472,465.5C 470.69,464.87 469.856,463.87 469.5,462.5C 471.127,460.536 473.127,459.203 475.5,458.5C 475.5,455.833 475.5,453.167 475.5,450.5C 480.489,451.609 484.156,449.942 486.5,445.5C 482.893,444.511 479.226,444.177 475.5,444.5C 475.611,443.883 475.944,443.383 476.5,443C 479.5,442.333 482.5,442.333 485.5,443C 488.393,445.391 490.727,448.225 492.5,451.5 Z"/></g>
<g><path style="opacity:1" fill="#f55590" d="M 208.5,444.5 C 214.528,444.017 219.528,446.017 223.5,450.5C 225.983,455.25 226.649,460.25 225.5,465.5C 224.5,465.5 223.5,465.5 222.5,465.5C 222.315,463.804 221.481,462.471 220,461.5C 219.818,458.774 219.318,456.107 218.5,453.5C 210.949,451.218 208.116,453.885 210,461.5C 205.839,458.875 203.672,455.209 203.5,450.5C 205.167,448.5 206.833,446.5 208.5,444.5 Z"/></g>
<g><path style="opacity:1" fill="#565656" d="M 437.5,451.5 C 436.514,453.408 434.848,454.408 432.5,454.5C 433.659,452.75 435.326,451.75 437.5,451.5 Z"/></g>
<g><path style="opacity:1" fill="#dd527b" d="M 203.5,450.5 C 203.672,455.209 205.839,458.875 210,461.5C 208.116,453.885 210.949,451.218 218.5,453.5C 219.318,456.107 219.818,458.774 220,461.5C 221.481,462.471 222.315,463.804 222.5,465.5C 218.213,463.163 216.38,459.496 217,454.5C 213.553,452.647 211.72,453.647 211.5,457.5C 212.984,460.469 214.484,463.469 216,466.5C 216.659,469.888 216.492,473.221 215.5,476.5C 215.167,476.5 214.833,476.5 214.5,476.5C 215.161,470.495 212.494,467.161 206.5,466.5C 205.471,464.483 204.471,462.483 203.5,460.5C 202.3,457.031 202.3,453.698 203.5,450.5 Z"/></g>
<g><path style="opacity:1" fill="#afafaf" d="M 421.5,450.5 C 419.669,452.776 417.336,454.609 414.5,456C 413.207,456.49 411.873,456.657 410.5,456.5C 413.678,453.742 417.345,451.742 421.5,450.5 Z"/></g>
<g><path style="opacity:1" fill="#af3b69" d="M 475.5,444.5 C 473.873,446.63 472.04,448.63 470,450.5C 469.501,454.486 469.334,458.486 469.5,462.5C 465.44,454.592 467.44,448.592 475.5,444.5 Z"/></g>
<g><path style="opacity:1" fill="#5b5b5b" d="M 284.5,456.5 C 286.898,456.259 288.898,456.926 290.5,458.5C 288.102,458.741 286.102,458.074 284.5,456.5 Z"/></g>
<g><path style="opacity:1" fill="#802c4c" d="M 223.5,450.5 C 225.173,451.343 226.34,452.676 227,454.5C 227.667,457.833 227.667,461.167 227,464.5C 226.617,465.056 226.117,465.389 225.5,465.5C 226.649,460.25 225.983,455.25 223.5,450.5 Z"/></g>
<g><path style="opacity:1" fill="#9d9d9d" d="M 408.5,456.5 C 407.313,458.975 405.313,459.975 402.5,459.5C 404.456,458.508 406.456,457.508 408.5,456.5 Z"/></g>
<g><path style="opacity:1" fill="#913a4b" d="M 198.5,463.5 C 196.606,462.952 194.94,461.952 193.5,460.5C 192.914,460.709 192.414,461.043 192,461.5C 191.322,465.221 191.489,468.888 192.5,472.5C 191.883,472.389 191.383,472.056 191,471.5C 190.333,467.833 190.333,464.167 191,460.5C 191.689,459.643 192.522,458.977 193.5,458.5C 195.521,459.855 197.188,461.521 198.5,463.5 Z"/></g>
<g><path style="opacity:1" fill="#a23f57" d="M 493.5,453.5 C 494.338,453.842 494.672,454.508 494.5,455.5C 493.903,460.294 494.57,464.627 496.5,468.5C 496.5,469.167 496.167,469.5 495.5,469.5C 493.554,464.604 492.887,459.271 493.5,453.5 Z"/></g>
<g><path style="opacity:1" fill="#3e1821" d="M 494.5,455.5 C 494.875,459.442 495.875,463.109 497.5,466.5C 497.167,467.167 496.833,467.833 496.5,468.5C 494.57,464.627 493.903,460.294 494.5,455.5 Z"/></g>
<g><path style="opacity:1" fill="#535353" d="M 290.5,458.5 C 297.829,460.276 304.829,462.61 311.5,465.5C 308.478,465.196 305.478,464.696 302.5,464C 298.344,462.239 294.344,460.405 290.5,458.5 Z"/></g>
<g><path style="opacity:1" fill="#525252" d="M 426.5,458.5 C 424.491,460.065 422.157,461.065 419.5,461.5C 421.176,459.166 423.509,458.166 426.5,458.5 Z"/></g>
<g><path style="opacity:1" fill="#f86086" d="M 492.5,451.5 C 493.338,451.842 493.672,452.508 493.5,453.5C 492.887,459.271 493.554,464.604 495.5,469.5C 492.929,471.565 490.429,473.898 488,476.5C 487.501,470.509 487.334,464.509 487.5,458.5C 489.631,456.389 491.298,454.056 492.5,451.5 Z"/></g>
<g><path style="opacity:1" fill="#989898" d="M 402.5,459.5 C 398.915,461.806 394.915,463.139 390.5,463.5C 394.233,461.589 398.233,460.256 402.5,459.5 Z"/></g>
<g><path style="opacity:1" fill="#572130" d="M 484.5,454.5 C 485.674,455.514 486.34,456.847 486.5,458.5C 486.819,463.363 486.486,468.03 485.5,472.5C 485.64,466.464 485.307,460.464 484.5,454.5 Z"/></g>
<g><path style="opacity:1" fill="#e75f76" d="M 486.5,458.5 C 486.833,458.5 487.167,458.5 487.5,458.5C 487.334,464.509 487.501,470.509 488,476.5C 490.429,473.898 492.929,471.565 495.5,469.5C 496.167,469.5 496.5,469.167 496.5,468.5C 496.833,467.833 497.167,467.167 497.5,466.5C 499.182,463.985 501.348,461.985 504,460.5C 505.174,461.544 506.341,462.544 507.5,463.5C 507.657,464.873 507.49,466.207 507,467.5C 501.63,472.702 496.464,478.035 491.5,483.5C 489.097,483.607 487.264,482.607 486,480.5C 485.503,477.854 485.336,475.187 485.5,472.5C 486.486,468.03 486.819,463.363 486.5,458.5 Z"/></g>
<g><path style="opacity:1" fill="#ed607b" d="M 198.5,463.5 C 199.314,465.631 199.814,467.964 200,470.5C 205.216,475.121 207.383,473.788 206.5,466.5C 212.494,467.161 215.161,470.495 214.5,476.5C 213.027,478.395 211.36,480.061 209.5,481.5C 201.408,482.955 195.741,479.955 192.5,472.5C 191.489,468.888 191.322,465.221 192,461.5C 192.414,461.043 192.914,460.709 193.5,460.5C 194.94,461.952 196.606,462.952 198.5,463.5 Z"/></g>
<g><path style="opacity:1" fill="#afafaf" d="M 282.5,462.5 C 286.144,463.315 289.811,464.148 293.5,465C 294.942,465.377 295.942,466.21 296.5,467.5C 291.586,466.441 286.92,464.774 282.5,462.5 Z"/></g>
<g><path style="opacity:1" fill="#a7a7a7" d="M 386.5,464.5 C 386.389,465.117 386.056,465.617 385.5,466C 377.18,467.403 368.846,468.57 360.5,469.5C 360.5,469.167 360.5,468.833 360.5,468.5C 369.202,467.383 377.868,466.05 386.5,464.5 Z"/></g>
<g><path style="opacity:1" fill="#e74f8a" d="M 464.5,469.5 C 464.5,469.833 464.5,470.167 464.5,470.5C 462.353,468.231 460.187,468.564 458,471.5C 458.487,473.044 458.987,474.71 459.5,476.5C 458.5,475.833 457.5,475.167 456.5,474.5C 455.054,473.387 453.387,473.22 451.5,474C 450.535,476.474 450.368,478.974 451,481.5C 448.768,482.408 446.601,483.408 444.5,484.5C 443.558,484.392 442.725,484.059 442,483.5C 441.19,479.642 441.357,475.976 442.5,472.5C 444.5,471.167 446.167,469.5 447.5,467.5C 447.953,466.542 448.619,465.708 449.5,465C 455.568,463.377 460.568,464.877 464.5,469.5 Z"/></g>
<g><path style="opacity:1" fill="#4f4f4f" d="M 412.5,464.5 C 409.374,466.99 405.708,468.323 401.5,468.5C 405.001,466.777 408.668,465.443 412.5,464.5 Z"/></g>
<g><path style="opacity:1" fill="#696969" d="M 297.5,468.5 C 301.162,468.723 304.495,469.723 307.5,471.5C 303.838,471.277 300.505,470.277 297.5,468.5 Z"/></g>
<g><path style="opacity:1" fill="#606060" d="M 318.5,466.5 C 332.438,468.165 346.438,468.831 360.5,468.5C 360.5,468.833 360.5,469.167 360.5,469.5C 350.161,469.666 339.828,469.5 329.5,469C 325.653,468.367 321.986,467.533 318.5,466.5 Z"/></g>
<g><path style="opacity:1" fill="#882d53" d="M 447.5,467.5 C 446.167,469.5 444.5,471.167 442.5,472.5C 443.167,469.833 444.833,468.167 447.5,467.5 Z"/></g>
<g><path style="opacity:1" fill="#979797" d="M 545.5,465.5 C 544.92,467.749 543.587,469.415 541.5,470.5C 542.08,468.251 543.413,466.585 545.5,465.5 Z"/></g>
<g><path style="opacity:1" fill="#e04f83" d="M 234.5,482.5 C 232.232,477.16 229.232,476.493 225.5,480.5C 228.681,474.151 232.848,468.484 238,463.5C 240.469,464.968 242.635,466.802 244.5,469C 241.318,473.672 237.984,478.172 234.5,482.5 Z"/></g>
<g><path style="opacity:1" fill="#404040" d="M 397.5,469.5 C 397.209,470.649 396.376,471.316 395,471.5C 392.863,472.077 390.696,472.41 388.5,472.5C 391.008,470.446 394.008,469.446 397.5,469.5 Z"/></g>
<g><path style="opacity:1" fill="#585858" d="M 558.5,467.5 C 557.92,469.749 556.587,471.415 554.5,472.5C 555.08,470.251 556.413,468.585 558.5,467.5 Z"/></g>
<g><path style="opacity:1" fill="#9b9b9b" d="M 541.5,470.5 C 540.243,473.427 538.243,475.761 535.5,477.5C 536.757,474.573 538.757,472.239 541.5,470.5 Z"/></g>
<g><path style="opacity:1" fill="#c0c0c0" d="M 308.5,471.5 C 318.147,472.665 327.814,473.832 337.5,475C 345.493,475.5 353.493,475.666 361.5,475.5C 353.35,476.493 345.017,476.826 336.5,476.5C 336.167,476.5 335.833,476.5 335.5,476.5C 331.081,475.028 326.414,474.362 321.5,474.5C 316.929,474.023 312.596,473.023 308.5,471.5 Z"/></g>
<g><path style="opacity:1" fill="#5b5b5b" d="M 321.5,474.5 C 326.414,474.362 331.081,475.028 335.5,476.5C 330.586,476.638 325.919,475.972 321.5,474.5 Z"/></g>
<g><path style="opacity:1" fill="#636363" d="M 554.5,472.5 C 553.92,474.749 552.587,476.415 550.5,477.5C 551.08,475.251 552.413,473.585 554.5,472.5 Z"/></g>
<g><path style="opacity:1" fill="#474747" d="M 384.5,472.5 C 384.082,473.222 383.416,473.722 382.5,474C 367.136,477.319 351.803,478.152 336.5,476.5C 345.017,476.826 353.35,476.493 361.5,475.5C 369.206,474.78 376.872,473.78 384.5,472.5 Z"/></g>
<g><path style="opacity:1" fill="#9f9f9f" d="M 152.5,477.5 C 157.833,482.167 162.833,487.167 167.5,492.5C 161.5,488.5 156.5,483.5 152.5,477.5 Z"/></g>
<g><path style="opacity:1" fill="#782c44" d="M 456.5,474.5 C 457.5,475.167 458.5,475.833 459.5,476.5C 459.813,480.042 459.479,483.375 458.5,486.5C 458.919,482.227 458.252,478.227 456.5,474.5 Z"/></g>
<g><path style="opacity:1" fill="#3d1a1f" d="M 507.5,463.5 C 509.914,464.777 510.081,466.443 508,468.5C 502.909,474.098 497.409,479.098 491.5,483.5C 496.464,478.035 501.63,472.702 507,467.5C 507.49,466.207 507.657,464.873 507.5,463.5 Z"/></g>
<g><path style="opacity:1" fill="#52212b" d="M 214.5,476.5 C 214.833,476.5 215.167,476.5 215.5,476.5C 214.732,479.562 212.732,481.228 209.5,481.5C 211.36,480.061 213.027,478.395 214.5,476.5 Z"/></g>
<g><path style="opacity:1" fill="#5a5a5a" d="M 550.5,477.5 C 549.92,479.749 548.587,481.415 546.5,482.5C 547.08,480.251 548.413,478.585 550.5,477.5 Z"/></g>
<g><path style="opacity:1" fill="#e95c7b" d="M 234.5,482.5 C 231.555,487.286 228.388,491.952 225,496.5C 224.261,497.574 223.261,498.241 222,498.5C 219.678,497.008 217.511,495.341 215.5,493.5C 218.611,488.918 221.945,484.584 225.5,480.5C 229.232,476.493 232.232,477.16 234.5,482.5 Z"/></g>
<g><path style="opacity:1" fill="#f5578e" d="M 259.5,478.5 C 259.885,485.197 260.552,491.864 261.5,498.5C 260.527,499.984 259.193,500.484 257.5,500C 255.879,497.834 255.045,495.334 255,492.5C 252.553,491.594 250.053,490.761 247.5,490C 246.748,489.329 246.414,488.496 246.5,487.5C 248.41,483.683 249.743,479.683 250.5,475.5C 252.068,474.527 253.735,474.36 255.5,475C 256.591,476.55 257.924,477.717 259.5,478.5 Z"/></g>
<g><path style="opacity:1" fill="#521c30" d="M 430.5,483.5 C 433.167,484.167 434.833,485.833 435.5,488.5C 433.5,487.167 431.833,485.5 430.5,483.5 Z"/></g>
<g><path style="opacity:1" fill="#f65e86" d="M 464.5,470.5 C 466.818,476.597 467.152,482.931 465.5,489.5C 464.073,491.148 463.24,493.148 463,495.5C 461.488,496.257 460.154,497.257 459,498.5C 458.308,497.975 457.808,497.308 457.5,496.5C 458.407,493.579 458.74,490.579 458.5,487.5C 458.5,487.167 458.5,486.833 458.5,486.5C 459.479,483.375 459.813,480.042 459.5,476.5C 458.987,474.71 458.487,473.044 458,471.5C 460.187,468.564 462.353,468.231 464.5,470.5 Z"/></g>
<g><path style="opacity:1" fill="#525252" d="M 149.5,484.5 C 152.903,486.9 155.57,489.9 157.5,493.5C 154.097,491.1 151.43,488.1 149.5,484.5 Z"/></g>
<g><path style="opacity:1" fill="#e65e76" d="M 455.5,502.5 C 455.993,500.194 456.326,497.861 456.5,495.5C 456.565,492.572 457.232,489.905 458.5,487.5C 458.74,490.579 458.407,493.579 457.5,496.5C 457.808,497.308 458.308,497.975 459,498.5C 460.154,497.257 461.488,496.257 463,495.5C 463.24,493.148 464.073,491.148 465.5,489.5C 465.5,490.5 465.5,491.5 465.5,492.5C 466.791,492.737 467.791,492.404 468.5,491.5C 470.561,489.289 473.061,487.623 476,486.5C 479.333,487.664 480.833,489.998 480.5,493.5C 478.692,493.491 477.025,493.991 475.5,495C 470.5,498.667 465.5,502.333 460.5,506C 457.989,506.239 456.323,505.072 455.5,502.5 Z"/></g>
<g><path style="opacity:1" fill="#7e3044" d="M 464.5,469.5 C 466.61,470.453 467.777,472.119 468,474.5C 468.71,479.609 468.21,484.609 466.5,489.5C 466.747,490.713 467.414,491.38 468.5,491.5C 467.791,492.404 466.791,492.737 465.5,492.5C 465.5,491.5 465.5,490.5 465.5,489.5C 467.152,482.931 466.818,476.597 464.5,470.5C 464.5,470.167 464.5,469.833 464.5,469.5 Z"/></g>
<g><path style="opacity:1" fill="#9b9b9b" d="M 535.5,477.5 C 529.094,485.411 522.094,492.911 514.5,500C 513.906,500.464 513.239,500.631 512.5,500.5C 519.833,492.5 527.5,484.833 535.5,477.5 Z"/></g>
<g><path style="opacity:1" fill="#f3548f" d="M 430.5,483.5 C 431.833,485.5 433.5,487.167 435.5,488.5C 437.019,491.481 438.685,494.481 440.5,497.5C 440.5,498.5 440.5,499.5 440.5,500.5C 439.069,499.22 438.402,497.553 438.5,495.5C 436.035,495.767 433.701,496.434 431.5,497.5C 429.861,495.194 427.861,493.194 425.5,491.5C 421.966,489.756 419.299,490.756 417.5,494.5C 416.539,496.265 416.205,498.265 416.5,500.5C 411.714,502.218 409.714,500.385 410.5,495C 410.971,491.854 411.971,489.021 413.5,486.5C 414.343,484.827 415.676,483.66 417.5,483C 421.92,482.232 426.253,482.398 430.5,483.5 Z"/></g>
<g><path style="opacity:1" fill="#a0395c" d="M 259.5,478.5 C 261.228,485.601 262.228,492.934 262.5,500.5C 261.662,500.158 261.328,499.492 261.5,498.5C 260.552,491.864 259.885,485.197 259.5,478.5 Z"/></g>
<g><path style="opacity:1" fill="#100608" d="M 425.5,491.5 C 427.861,493.194 429.861,495.194 431.5,497.5C 431.517,499.565 431.85,501.565 432.5,503.5C 432.88,512.123 429.547,513.79 422.5,508.5C 422.245,506.033 421.245,504.033 419.5,502.5C 419.167,501.167 418.833,499.833 418.5,498.5C 418.5,493.833 420.833,491.5 425.5,491.5 Z"/></g>
<g><path style="opacity:1" fill="#742944" d="M 425.5,491.5 C 420.833,491.5 418.5,493.833 418.5,498.5C 417.566,497.432 417.232,496.099 417.5,494.5C 419.299,490.756 421.966,489.756 425.5,491.5 Z"/></g>
<g><path style="opacity:1" fill="#565656" d="M 544.5,484.5 C 541.899,488.771 538.566,492.437 534.5,495.5C 537.101,491.229 540.434,487.563 544.5,484.5 Z"/></g>
<g><path style="opacity:1" fill="#66223d" d="M 312.5,497.5 C 305.284,494.591 298.284,494.924 291.5,498.5C 294.315,495.224 297.981,493.891 302.5,494.5C 304.5,494.667 306.5,494.833 308.5,495C 310.32,495.2 311.653,496.034 312.5,497.5 Z"/></g>
<g><path style="opacity:1" fill="#9c3c54" d="M 250.5,475.5 C 249.743,479.683 248.41,483.683 246.5,487.5C 242.379,494.077 239.046,501.077 236.5,508.5C 234.775,508.157 234.275,507.157 235,505.5C 239.941,495.282 245.108,485.282 250.5,475.5 Z"/></g>
<g><path style="opacity:1" fill="#a93d61" d="M 278.5,487.5 C 273.695,485.457 271.528,487.124 272,492.5C 270.001,494.493 268.501,496.827 267.5,499.5C 266.643,500.425 265.643,501.092 264.5,501.5C 266.989,496.522 269.489,491.522 272,486.5C 274.552,484.98 276.718,485.313 278.5,487.5 Z"/></g>
<g><path style="opacity:1" fill="#f0558c" d="M 312.5,497.5 C 314.142,498.803 315.809,500.136 317.5,501.5C 318.038,504.189 318.705,506.856 319.5,509.5C 317.604,510.466 315.604,510.799 313.5,510.5C 311.67,508.631 309.67,506.798 307.5,505C 302.168,502.612 297.835,503.779 294.5,508.5C 293.883,508.611 293.383,508.944 293,509.5C 292.012,512.424 291.346,515.424 291,518.5C 286.387,517.369 284.553,514.369 285.5,509.5C 286.407,507.343 287.073,505.01 287.5,502.5C 287.833,500.167 289.167,498.833 291.5,498.5C 298.284,494.924 305.284,494.591 312.5,497.5 Z"/></g>
<g><path style="opacity:1" fill="#f05d81" d="M 278.5,487.5 C 281.076,487.722 281.91,489.055 281,491.5C 275.745,501.01 270.745,510.676 266,520.5C 262.383,521.943 259.217,521.277 256.5,518.5C 256.556,513.269 255.889,508.269 254.5,503.5C 254.5,503.167 254.5,502.833 254.5,502.5C 254.665,499.482 254.498,496.482 254,493.5C 253.586,493.043 253.086,492.709 252.5,492.5C 248.962,498.243 245.962,504.243 243.5,510.5C 240.772,510.829 238.438,510.163 236.5,508.5C 239.046,501.077 242.379,494.077 246.5,487.5C 246.414,488.496 246.748,489.329 247.5,490C 250.053,490.761 252.553,491.594 255,492.5C 255.045,495.334 255.879,497.834 257.5,500C 259.193,500.484 260.527,499.984 261.5,498.5C 261.328,499.492 261.662,500.158 262.5,500.5C 262.281,501.675 262.614,502.675 263.5,503.5C 264.298,503.043 264.631,502.376 264.5,501.5C 265.643,501.092 266.643,500.425 267.5,499.5C 268.501,496.827 270.001,494.493 272,492.5C 271.528,487.124 273.695,485.457 278.5,487.5 Z"/></g>
<g><path style="opacity:1" fill="#9f3660" d="M 331.5,500.5 C 338.989,499.344 346.655,499.178 354.5,500C 355.814,502.605 355.814,505.105 354.5,507.5C 349.833,507.5 345.167,507.5 340.5,507.5C 344.634,506.515 348.968,506.182 353.5,506.5C 353.5,504.833 353.5,503.167 353.5,501.5C 351.167,501.5 348.833,501.5 346.5,501.5C 342.03,500.514 337.363,500.181 332.5,500.5C 332.167,500.5 331.833,500.5 331.5,500.5 Z"/></g>
<g><path style="opacity:1" fill="#6a2b37" d="M 456.5,495.5 C 456.326,497.861 455.993,500.194 455.5,502.5C 454.133,499.988 454.466,497.655 456.5,495.5 Z"/></g>
<g><path style="opacity:1" fill="#f95594" d="M 346.5,501.5 C 348.833,501.5 351.167,501.5 353.5,501.5C 353.5,503.167 353.5,504.833 353.5,506.5C 348.968,506.182 344.634,506.515 340.5,507.5C 339.766,508.878 339.099,510.378 338.5,512C 337.101,512.595 335.768,512.428 334.5,511.5C 333.513,508.232 333.18,504.898 333.5,501.5C 337.833,501.5 342.167,501.5 346.5,501.5 Z"/></g>
<g><path style="opacity:1" fill="#481e27" d="M 254.5,502.5 C 253.835,500.302 253.168,497.969 252.5,495.5C 250.171,500.158 247.838,504.824 245.5,509.5C 245.043,510.298 244.376,510.631 243.5,510.5C 245.962,504.243 248.962,498.243 252.5,492.5C 253.086,492.709 253.586,493.043 254,493.5C 254.498,496.482 254.665,499.482 254.5,502.5 Z"/></g>
<g><path style="opacity:1" fill="#9d9d9d" d="M 169.5,504.5 C 172.089,505.419 174.089,507.086 175.5,509.5C 172.911,508.581 170.911,506.914 169.5,504.5 Z"/></g>
<g><path style="opacity:1" fill="#762846" d="M 381.5,495.5 C 376.987,499.026 374.987,503.693 375.5,509.5C 373.074,503.013 375.074,498.346 381.5,495.5 Z"/></g>
<g><path style="opacity:1" fill="#f0568a" d="M 399.5,498.5 C 400.741,503.177 400.741,507.843 399.5,512.5C 398.833,514.167 398.167,515.833 397.5,517.5C 397.167,517.5 396.833,517.5 396.5,517.5C 396.649,516.448 396.483,515.448 396,514.5C 394.559,515.26 393.059,515.926 391.5,516.5C 391.167,516 390.833,515.5 390.5,515C 392.643,511.188 392.977,507.355 391.5,503.5C 386.178,500.346 383.845,502.013 384.5,508.5C 381.545,509.159 378.545,509.492 375.5,509.5C 374.987,503.693 376.987,499.026 381.5,495.5C 381.611,494.883 381.944,494.383 382.5,494C 389.241,492.172 394.907,493.672 399.5,498.5 Z"/></g>
<g><path style="opacity:1" fill="#8a324e" d="M 399.5,498.5 C 401.017,500.462 401.684,502.795 401.5,505.5C 401.684,508.205 401.017,510.538 399.5,512.5C 400.741,507.843 400.741,503.177 399.5,498.5 Z"/></g>
<g><path style="opacity:1" fill="#803343" d="M 440.5,497.5 C 441.222,497.918 441.722,498.584 442,499.5C 442.814,504.02 442.647,508.354 441.5,512.5C 441.763,508.4 441.43,504.4 440.5,500.5C 440.5,499.5 440.5,498.5 440.5,497.5 Z"/></g>
<g><path style="opacity:1" fill="#a63b60" d="M 317.5,501.5 C 321.009,504.239 322.343,507.906 321.5,512.5C 318.572,512.435 315.905,511.768 313.5,510.5C 315.604,510.799 317.604,510.466 319.5,509.5C 318.705,506.856 318.038,504.189 317.5,501.5 Z"/></g>
<g><path style="opacity:1" fill="#3e3e3e" d="M 529.5,500.5 C 526.769,504.234 523.436,507.234 519.5,509.5C 522.231,505.766 525.564,502.766 529.5,500.5 Z"/></g>
<g><path style="opacity:1" fill="#f36081" d="M 413.5,486.5 C 411.971,489.021 410.971,491.854 410.5,495C 409.714,500.385 411.714,502.218 416.5,500.5C 416.205,498.265 416.539,496.265 417.5,494.5C 417.232,496.099 417.566,497.432 418.5,498.5C 418.833,499.833 419.167,501.167 419.5,502.5C 419.755,504.967 420.755,506.967 422.5,508.5C 422.511,510.017 423.177,511.184 424.5,512C 433.013,514.325 435.679,511.492 432.5,503.5C 431.85,501.565 431.517,499.565 431.5,497.5C 433.701,496.434 436.035,495.767 438.5,495.5C 438.402,497.553 439.069,499.22 440.5,500.5C 441.43,504.4 441.763,508.4 441.5,512.5C 439.863,514.475 438.196,516.475 436.5,518.5C 431.985,520.279 427.318,520.779 422.5,520C 421.529,518.519 420.196,517.685 418.5,517.5C 417.167,516.167 415.833,514.833 414.5,513.5C 414.245,511.033 413.245,509.033 411.5,507.5C 409.677,501.629 409.177,495.629 410,489.5C 410.759,487.937 411.926,486.937 413.5,486.5 Z"/></g>
<g><path style="opacity:1" fill="#782e42" d="M 419.5,502.5 C 421.245,504.033 422.245,506.033 422.5,508.5C 420.755,506.967 419.755,504.967 419.5,502.5 Z"/></g>
<g><path style="opacity:1" fill="#6e273f" d="M 340.5,507.5 C 345.167,507.5 349.833,507.5 354.5,507.5C 350.366,508.485 346.032,508.818 341.5,508.5C 341.5,510.5 341.5,512.5 341.5,514.5C 345.371,514.185 349.038,514.518 352.5,515.5C 348.5,515.5 344.5,515.5 340.5,515.5C 340.5,512.833 340.5,510.167 340.5,507.5 Z"/></g>
<g><path style="opacity:1" fill="#8d394a" d="M 432.5,503.5 C 435.679,511.492 433.013,514.325 424.5,512C 423.177,511.184 422.511,510.017 422.5,508.5C 429.547,513.79 432.88,512.123 432.5,503.5 Z"/></g>
<g><path style="opacity:1" fill="#572230" d="M 411.5,507.5 C 413.245,509.033 414.245,511.033 414.5,513.5C 412.755,511.967 411.755,509.967 411.5,507.5 Z"/></g>
<g><path style="opacity:1" fill="#993b53" d="M 287.5,502.5 C 287.073,505.01 286.407,507.343 285.5,509.5C 284.265,514.45 284.599,519.45 286.5,524.5C 285.883,524.389 285.383,524.056 285,523.5C 283.561,518.238 283.228,512.904 284,507.5C 284.697,505.416 285.864,503.749 287.5,502.5 Z"/></g>
<g><path style="opacity:1" fill="#cf516f" d="M 391.5,503.5 C 392.977,507.355 392.643,511.188 390.5,515C 390.833,515.5 391.167,516 391.5,516.5C 393.059,515.926 394.559,515.26 396,514.5C 396.483,515.448 396.649,516.448 396.5,517.5C 395.011,519.645 394.011,521.978 393.5,524.5C 396.727,524.324 399.727,523.657 402.5,522.5C 404.099,522.232 405.432,522.566 406.5,523.5C 406.5,524.5 406.5,525.5 406.5,526.5C 405.842,525.602 405.176,524.602 404.5,523.5C 400.206,524.71 395.872,525.71 391.5,526.5C 391.833,524.5 392.167,522.5 392.5,520.5C 390.94,520.519 389.44,520.852 388,521.5C 385.592,523.62 383.092,525.62 380.5,527.5C 384.144,522.337 387.644,517.004 391,511.5C 391.497,508.854 391.664,506.187 391.5,503.5 Z"/></g>
<g><path style="opacity:1" fill="#5b252e" d="M 254.5,503.5 C 255.889,508.269 256.556,513.269 256.5,518.5C 255.111,513.731 254.444,508.731 254.5,503.5 Z"/></g>
<g><path style="opacity:1" fill="#f45b88" d="M 332.5,500.5 C 337.363,500.181 342.03,500.514 346.5,501.5C 342.167,501.5 337.833,501.5 333.5,501.5C 333.18,504.898 333.513,508.232 334.5,511.5C 335.768,512.428 337.101,512.595 338.5,512C 339.099,510.378 339.766,508.878 340.5,507.5C 340.5,510.167 340.5,512.833 340.5,515.5C 344.5,515.5 348.5,515.5 352.5,515.5C 352.5,517.5 352.5,519.5 352.5,521.5C 348.298,521.183 344.298,521.517 340.5,522.5C 339.596,523.209 339.263,524.209 339.5,525.5C 337.208,525.244 335.041,525.577 333,526.5C 332.5,517.84 332.334,509.173 332.5,500.5 Z"/></g>
<g><path style="opacity:1" fill="#7c333e" d="M 418.5,517.5 C 420.196,517.685 421.529,518.519 422.5,520C 427.318,520.779 431.985,520.279 436.5,518.5C 435.942,519.79 434.942,520.623 433.5,521C 429.5,521.667 425.5,521.667 421.5,521C 420.29,519.961 419.29,518.794 418.5,517.5 Z"/></g>
<g><path style="opacity:1" fill="#ef617b" d="M 294.5,508.5 C 291.392,519.836 295.392,524.836 306.5,523.5C 310.167,523.5 313.833,523.5 317.5,523.5C 317.607,525.903 316.607,527.736 314.5,529C 312.075,530.213 309.741,531.379 307.5,532.5C 303.131,532.533 298.798,532.2 294.5,531.5C 290.914,530.25 288.248,527.916 286.5,524.5C 284.599,519.45 284.265,514.45 285.5,509.5C 284.553,514.369 286.387,517.369 291,518.5C 291.346,515.424 292.012,512.424 293,509.5C 293.383,508.944 293.883,508.611 294.5,508.5 Z"/></g>
<g><path style="opacity:1" fill="#a44057" d="M 317.5,523.5 C 313.833,523.5 310.167,523.5 306.5,523.5C 307.134,522.053 308.301,521.387 310,521.5C 312.708,521.867 315.208,522.534 317.5,523.5 Z"/></g>
<g><path style="opacity:1" fill="#4b1f28" d="M 396.5,517.5 C 396.833,517.5 397.167,517.5 397.5,517.5C 396.962,519.117 396.629,520.784 396.5,522.5C 398.5,522.5 400.5,522.5 402.5,522.5C 399.727,523.657 396.727,524.324 393.5,524.5C 394.011,521.978 395.011,519.645 396.5,517.5 Z"/></g>
<g><path style="opacity:1" fill="#f9667f" d="M 406.5,526.5 C 406.5,527.5 406.5,528.5 406.5,529.5C 404.585,529.216 402.919,529.549 401.5,530.5C 398.505,530.294 395.838,530.96 393.5,532.5C 393.167,532.5 392.833,532.5 392.5,532.5C 388.787,533.293 385.12,533.293 381.5,532.5C 380.691,530.929 380.357,529.262 380.5,527.5C 383.092,525.62 385.592,523.62 388,521.5C 389.44,520.852 390.94,520.519 392.5,520.5C 392.167,522.5 391.833,524.5 391.5,526.5C 395.872,525.71 400.206,524.71 404.5,523.5C 405.176,524.602 405.842,525.602 406.5,526.5 Z"/></g>
<g><path style="opacity:1" fill="#969696" d="M 478.5,525.5 C 477.514,527.408 475.848,528.408 473.5,528.5C 474.659,526.75 476.326,525.75 478.5,525.5 Z"/></g>
<g><path style="opacity:1" fill="#f0627b" d="M 331.5,500.5 C 331.833,500.5 332.167,500.5 332.5,500.5C 332.334,509.173 332.5,517.84 333,526.5C 335.041,525.577 337.208,525.244 339.5,525.5C 339.263,524.209 339.596,523.209 340.5,522.5C 340.5,525.167 340.5,527.833 340.5,530.5C 344.833,530.5 349.167,530.5 353.5,530.5C 353.5,532.833 353.5,535.167 353.5,537.5C 346.167,537.5 338.833,537.5 331.5,537.5C 331.5,525.167 331.5,512.833 331.5,500.5 Z"/></g>
<g><path style="opacity:1" fill="#431e23" d="M 406.5,523.5 C 407.924,525.515 408.59,527.848 408.5,530.5C 406.167,530.5 403.833,530.5 401.5,530.5C 402.919,529.549 404.585,529.216 406.5,529.5C 406.5,528.5 406.5,527.5 406.5,526.5C 406.5,525.5 406.5,524.5 406.5,523.5 Z"/></g>
<g><path style="opacity:1" fill="#7d353e" d="M 401.5,530.5 C 399.095,531.768 396.428,532.435 393.5,532.5C 395.838,530.96 398.505,530.294 401.5,530.5 Z"/></g>
<g><path style="opacity:1" fill="#7c343e" d="M 294.5,531.5 C 298.798,532.2 303.131,532.533 307.5,532.5C 305.866,533.161 304.033,533.494 302,533.5C 299.134,533.7 296.634,533.033 294.5,531.5 Z"/></g>
<g><path style="opacity:1" fill="#4d4d4d" d="M 224.5,533.5 C 227.343,533.942 230.009,534.942 232.5,536.5C 233.298,536.957 233.631,537.624 233.5,538.5C 230.008,537.59 227.008,535.924 224.5,533.5 Z"/></g>
<g><path style="opacity:1" fill="#8b3a46" d="M 380.5,527.5 C 380.357,529.262 380.691,530.929 381.5,532.5C 385.12,533.293 388.787,533.293 392.5,532.5C 388.8,534.245 384.8,535.245 380.5,535.5C 379.503,532.672 379.503,530.005 380.5,527.5 Z"/></g>
<g><path style="opacity:1" fill="#6a6a6a" d="M 488.5,532.5 C 488.027,533.906 487.027,534.573 485.5,534.5C 485.973,533.094 486.973,532.427 488.5,532.5 Z"/></g>
<g><path style="opacity:1" fill="#642933" d="M 352.5,515.5 C 353.468,517.607 353.802,519.941 353.5,522.5C 349.5,522.5 345.5,522.5 341.5,522.5C 341.5,524.833 341.5,527.167 341.5,529.5C 345.833,529.5 350.167,529.5 354.5,529.5C 354.5,532.5 354.5,535.5 354.5,538.5C 346.648,538.825 338.982,538.492 331.5,537.5C 338.833,537.5 346.167,537.5 353.5,537.5C 353.5,535.167 353.5,532.833 353.5,530.5C 349.167,530.5 344.833,530.5 340.5,530.5C 340.5,527.833 340.5,525.167 340.5,522.5C 344.298,521.517 348.298,521.183 352.5,521.5C 352.5,519.5 352.5,517.5 352.5,515.5 Z"/></g>
<g><path style="opacity:1" fill="#525252" d="M 233.5,538.5 C 236.649,538.415 239.316,539.415 241.5,541.5C 238.351,541.585 235.684,540.585 233.5,538.5 Z"/></g>
<g><path style="opacity:1" fill="#6a6a6a" d="M 241.5,541.5 C 243.027,541.427 244.027,542.094 244.5,543.5C 242.973,543.573 241.973,542.906 241.5,541.5 Z"/></g>
<g><path style="opacity:1" fill="#949494" d="M 231.5,546.5 C 235.836,546.837 239.503,548.504 242.5,551.5C 238.407,550.618 234.74,548.951 231.5,546.5 Z"/></g>
<g><path style="opacity:1" fill="#4e4e4e" d="M 260.5,549.5 C 266.166,550.39 271.5,552.057 276.5,554.5C 270.834,553.61 265.5,551.943 260.5,549.5 Z"/></g>
<g><path style="opacity:1" fill="#aeaeae" d="M 438.5,545.5 C 432.239,549.704 425.239,552.371 417.5,553.5C 424.458,550.845 431.458,548.179 438.5,545.5 Z"/></g>
<g><path style="opacity:1" fill="#949494" d="M 242.5,551.5 C 244.898,551.259 246.898,551.926 248.5,553.5C 246.102,553.741 244.102,553.074 242.5,551.5 Z"/></g>
<g><path style="opacity:1" fill="#4b4b4b" d="M 281.5,555.5 C 284.152,555.41 286.485,556.076 288.5,557.5C 285.848,557.59 283.515,556.924 281.5,555.5 Z"/></g>
<g><path style="opacity:1" fill="#555555" d="M 408.5,555.5 C 405.829,557.118 402.829,557.785 399.5,557.5C 402.273,556.343 405.273,555.676 408.5,555.5 Z"/></g>
<g><path style="opacity:1" fill="#4d4d4d" d="M 446.5,554.5 C 443.374,556.99 439.708,558.323 435.5,558.5C 439.001,556.777 442.668,555.443 446.5,554.5 Z"/></g>
<g><path style="opacity:1" fill="#5a5a5a" d="M 398.5,557.5 C 396.162,559.04 393.495,559.706 390.5,559.5C 392.905,558.232 395.572,557.565 398.5,557.5 Z"/></g>
<g><path style="opacity:1" fill="#6a6a6a" d="M 293.5,558.5 C 299.374,559.049 305.041,560.049 310.5,561.5C 304.497,561.667 298.83,560.667 293.5,558.5 Z"/></g>
<g><path style="opacity:1" fill="#9a9a9a" d="M 268.5,560.5 C 273.165,561.057 277.498,562.39 281.5,564.5C 276.835,563.943 272.502,562.61 268.5,560.5 Z"/></g>
<g><path style="opacity:1" fill="#888888" d="M 388.5,559.5 C 383.527,561.76 378.194,562.76 372.5,562.5C 377.585,560.857 382.918,559.857 388.5,559.5 Z"/></g>
<g><path style="opacity:1" fill="#6b6b6b" d="M 311.5,561.5 C 316.414,561.362 321.081,562.028 325.5,563.5C 320.586,563.638 315.919,562.972 311.5,561.5 Z"/></g>
<g><path style="opacity:1" fill="#606060" d="M 419.5,563.5 C 417.485,564.924 415.152,565.59 412.5,565.5C 414.515,564.076 416.848,563.41 419.5,563.5 Z"/></g>
<g><path style="opacity:1" fill="#898989" d="M 287.5,565.5 C 289.898,565.259 291.898,565.926 293.5,567.5C 291.102,567.741 289.102,567.074 287.5,565.5 Z"/></g>
<g><path style="opacity:1" fill="#acacac" d="M 294.5,567.5 C 301.407,567.754 308.074,568.754 314.5,570.5C 307.565,570.415 300.899,569.415 294.5,567.5 Z"/></g>
<g><path style="opacity:1" fill="#696969" d="M 406.5,566.5 C 404.485,567.924 402.152,568.59 399.5,568.5C 401.515,567.076 403.848,566.41 406.5,566.5 Z"/></g>
<g><path style="opacity:1" fill="#7c7c7c" d="M 395.5,568.5 C 393.485,569.924 391.152,570.59 388.5,570.5C 390.515,569.076 392.848,568.41 395.5,568.5 Z"/></g>
<g><path style="opacity:1" fill="#616161" d="M 388.5,570.5 C 382.406,572.094 376.072,572.761 369.5,572.5C 375.641,571.364 381.974,570.697 388.5,570.5 Z"/></g>
</svg>
